<?xml version="1.0" encoding="UTF-8" standalone="no"?>
<svg
   xmlns:dc="http://purl.org/dc/elements/1.1/"
   xmlns:cc="http://creativecommons.org/ns#"
   xmlns:rdf="http://www.w3.org/1999/02/22-rdf-syntax-ns#"
   xmlns:svg="http://www.w3.org/2000/svg"
   xmlns="http://www.w3.org/2000/svg"
   viewBox="0 0 243.9394 241.72954"
   height="241.72954"
   width="243.93939"
   xml:space="preserve"
   version="1.1"
   id="svg10500"><metadata
     id="metadata10506"><rdf:RDF><cc:Work
         rdf:about=""><dc:format>image/svg+xml</dc:format><dc:type
           rdf:resource="http://purl.org/dc/dcmitype/StillImage" /><dc:title></dc:title></cc:Work></rdf:RDF></metadata><defs
     id="defs10504"><clipPath
       id="clipPath10582"
       clipPathUnits="userSpaceOnUse"><path
         style="clip-rule:evenodd"
         id="path10584"
         d="M 0,1950 0,0 l 8140,0 0,1950 -8140,0 z m 4652.34,-117.26 168.19,0 0,37.79 -168.19,0 0,0 75.59,-18.89 -75.59,-18.9 z" /></clipPath><clipPath
       id="clipPath10594"
       clipPathUnits="userSpaceOnUse"><path
         style="clip-rule:evenodd"
         id="path10596"
         d="M 0,1950 0,0 l 8140,0 0,1950 -8140,0 z m 3801.98,-117.26 168.18,0 0,37.79 -168.18,0 0,0 75.59,-18.89 -75.59,-18.9 z" /></clipPath><clipPath
       id="clipPath10606"
       clipPathUnits="userSpaceOnUse"><path
         style="clip-rule:evenodd"
         id="path10608"
         d="M 0,1950 0,0 l 8140,0 0,1950 -8140,0 z m 3858.67,-967.629 168.18,0 0,37.799 -168.18,0 0,0 75.59,-18.9 -75.59,-18.899 z" /></clipPath><clipPath
       id="clipPath10618"
       clipPathUnits="userSpaceOnUse"><path
         style="clip-rule:evenodd"
         id="path10620"
         d="M 0,1950 0,0 l 8140,0 0,1950 -8140,0 z m 3801.98,-1817.992 168.18,0 0,37.793 -168.18,0 0,0 75.59,-18.895 -75.59,-18.898 z" /></clipPath><clipPath
       id="clipPath10630"
       clipPathUnits="userSpaceOnUse"><path
         style="clip-rule:evenodd"
         id="path10632"
         d="M 0,1950 0,0 l 8140,0 0,1950 -8140,0 z m 4652.34,-1817.992 168.19,0 0,37.793 -168.19,0 0,0 75.59,-18.895 -75.59,-18.898 z" /></clipPath><clipPath
       id="clipPath10674"
       clipPathUnits="userSpaceOnUse"><path
         style="clip-rule:evenodd"
         id="path10676"
         d="M 0,1950 0,0 l 8140,0 0,1950 -8140,0 z m 7770.35,-117.26 168.18,0 0,37.79 -168.18,0 0,0 75.59,-18.89 -75.59,-18.9 z" /></clipPath><clipPath
       id="clipPath10686"
       clipPathUnits="userSpaceOnUse"><path
         style="clip-rule:evenodd"
         id="path10688"
         d="M 0,1950 0,0 l 8140,0 0,1950 -8140,0 z m 6919.98,-117.26 168.19,0 0,37.79 -168.19,0 0,0 75.59,-18.89 -75.59,-18.9 z" /></clipPath><clipPath
       id="clipPath10698"
       clipPathUnits="userSpaceOnUse"><path
         style="clip-rule:evenodd"
         id="path10700"
         d="M 0,1950 0,0 l 8140,0 0,1950 -8140,0 z m 6976.68,-967.629 168.18,0 0,37.799 -168.18,0 0,0 75.58,-18.9 -75.58,-18.899 z" /></clipPath><clipPath
       id="clipPath10710"
       clipPathUnits="userSpaceOnUse"><path
         style="clip-rule:evenodd"
         id="path10712"
         d="M 0,1950 0,0 l 8140,0 0,1950 -8140,0 z m 6919.98,-1817.992 168.19,0 0,37.793 -168.19,0 0,0 75.59,-18.895 -75.59,-18.898 z" /></clipPath><clipPath
       id="clipPath10722"
       clipPathUnits="userSpaceOnUse"><path
         style="clip-rule:evenodd"
         id="path10724"
         d="M 0,1950 0,0 l 8140,0 0,1950 -8140,0 z m 7770.35,-1817.992 168.18,0 0,37.793 -168.18,0 0,0 75.59,-18.895 -75.59,-18.898 z" /></clipPath><clipPath
       id="clipPath10732"
       clipPathUnits="userSpaceOnUse"><rect
         transform="scale(1,-1)"
         y="-2019.5122"
         x="2917.0732"
         height="2146.3416"
         width="2321.9512"
         id="rect10734" /></clipPath><clipPath
       id="clipPath10738"
       clipPathUnits="userSpaceOnUse"><rect
         transform="scale(1,-1)"
         y="-1980.9535"
         x="3098.8916"
         height="2024.2424"
         width="1951.5151"
         id="rect10740" /></clipPath><clipPath
       id="clipPath10744"
       clipPathUnits="userSpaceOnUse"><rect
         transform="scale(1,-1)"
         y="-2005.1959"
         x="2989.8008"
         height="1963.6365"
         width="2242.4246"
         id="rect10746" /></clipPath></defs><g
     transform="matrix(1.25,0,0,-1.25,-387.36145,242.37902)"
     id="g10508"><g
       clip-path="url(#clipPath10744)"
       transform="scale(0.1,0.1)"
       id="g10510"><path
         id="path10512"
         style="fill:none;stroke:#000000;stroke-width:4.72424984;stroke-linecap:butt;stroke-linejoin:miter;stroke-miterlimit:10;stroke-dasharray:none;stroke-opacity:1"
         d="M 4074.09,150.906 4924.46,1851.64" /><path
         id="path10514"
         style="fill:none;stroke:#000000;stroke-width:4.72424984;stroke-linecap:butt;stroke-linejoin:miter;stroke-miterlimit:10;stroke-dasharray:none;stroke-opacity:1"
         d="m 3223.73,1001.27 1700.73,850.37" /><path
         id="path10516"
         style="fill:none;stroke:#000000;stroke-width:4.72424984;stroke-linecap:butt;stroke-linejoin:miter;stroke-miterlimit:10;stroke-dasharray:none;stroke-opacity:1"
         d="m 3223.73,1851.64 0,-1700.734 850.36,850.364 0,-850.364 -850.36,850.364 850.36,850.37 0,-850.37 850.37,850.37 0,-1700.734 L 4074.09,1851.64 3223.73,150.906" /><path
         id="path10518"
         style="fill:none;stroke:#ff0000;stroke-width:18.89699936;stroke-linecap:butt;stroke-linejoin:miter;stroke-miterlimit:10;stroke-dasharray:none;stroke-opacity:1"
         d="m 3223.73,1851.64 0,-1700.734" /><path
         id="path10520"
         style="fill:none;stroke:#ff0000;stroke-width:18.89699936;stroke-linecap:butt;stroke-linejoin:miter;stroke-miterlimit:10;stroke-dasharray:none;stroke-opacity:1"
         d="m 4074.09,150.906 0,850.364 850.37,850.37 -850.37,-1700.734 z" /><path
         id="path10522"
         style="fill:none;stroke:#ff0000;stroke-width:18.89699936;stroke-linecap:butt;stroke-linejoin:miter;stroke-miterlimit:10;stroke-dasharray:none;stroke-opacity:1"
         d="M 8042.46,150.906 7192.1,1851.64" /><path
         id="path10524"
         style="fill:none;stroke:#ff0000;stroke-width:18.89699936;stroke-linecap:butt;stroke-linejoin:miter;stroke-miterlimit:10;stroke-dasharray:none;stroke-opacity:1"
         d="M 8042.46,1851.64 6341.73,1001.27" /><path
         id="path10526"
         style="fill:none;stroke:#ff0000;stroke-width:18.89699936;stroke-linecap:butt;stroke-linejoin:miter;stroke-miterlimit:10;stroke-dasharray:none;stroke-opacity:1"
         d="m 7192.1,1001.27 0,-850.364" /><g
         transform="scale(10,10)"
         id="g10528"><text
           id="text10530"
           style="font-variant:normal;font-weight:normal;font-size:23.99920082px;font-family:Times;-inkscape-font-specification:Times-Roman;writing-mode:lr-tb;fill:#000000;fill-opacity:1;fill-rule:nonzero;stroke:none"
           transform="matrix(1,0,0,-1,1.90898,170.991)"><tspan
             id="tspan10532"
             y="0"
             x="0 57.350887 114.04204">ABC</tspan><tspan
             id="tspan10534"
             y="85.036301"
             x="0 58.587086 114.0418">A−C</tspan><tspan
             id="tspan10536"
             y="0"
             x="171.96899">−</tspan><tspan
             id="tspan10538"
             y="85.036301"
             x="171.96899">−</tspan><tspan
             id="tspan10540"
             y="170.073"
             x="170.07291 114.04161 58.58691 0.65960997">AC−B</tspan></text>
</g><path
         id="path10542"
         style="fill:#000000;fill-opacity:1;fill-rule:evenodd;stroke:none"
         d="m 3308.77,1851.64 c 0,-46.96 -38.08,-85.04 -85.04,-85.04 -46.96,0 -85.03,38.08 -85.03,85.04 0,46.96 38.07,85.03 85.03,85.03 46.96,0 85.04,-38.07 85.04,-85.03" /><path
         id="path10544"
         style="fill:none;stroke:#000000;stroke-width:4.72424984;stroke-linecap:butt;stroke-linejoin:miter;stroke-miterlimit:10;stroke-dasharray:none;stroke-opacity:1"
         d="m 3308.77,1851.64 c 0,-46.96 -38.08,-85.04 -85.04,-85.04 -46.96,0 -85.03,38.08 -85.03,85.04 0,46.96 38.07,85.03 85.03,85.03 46.96,0 85.04,-38.07 85.04,-85.03 z" /><path
         id="path10546"
         style="fill:#000000;fill-opacity:1;fill-rule:evenodd;stroke:none"
         d="m 4159.13,1851.64 c 0,-46.96 -38.08,-85.04 -85.04,-85.04 -46.96,0 -85.03,38.08 -85.03,85.04 0,46.96 38.07,85.03 85.03,85.03 46.96,0 85.04,-38.07 85.04,-85.03" /><path
         id="path10548"
         style="fill:none;stroke:#000000;stroke-width:4.72424984;stroke-linecap:butt;stroke-linejoin:miter;stroke-miterlimit:10;stroke-dasharray:none;stroke-opacity:1"
         d="m 4159.13,1851.64 c 0,-46.96 -38.08,-85.04 -85.04,-85.04 -46.96,0 -85.03,38.08 -85.03,85.04 0,46.96 38.07,85.03 85.03,85.03 46.96,0 85.04,-38.07 85.04,-85.03 z" /><path
         id="path10550"
         style="fill:#000000;fill-opacity:1;fill-rule:evenodd;stroke:none"
         d="m 5009.5,1851.64 c 0,-46.96 -38.08,-85.04 -85.04,-85.04 -46.96,0 -85.04,38.08 -85.04,85.04 0,46.96 38.08,85.03 85.04,85.03 46.96,0 85.04,-38.07 85.04,-85.03" /><path
         id="path10552"
         style="fill:none;stroke:#000000;stroke-width:4.72424984;stroke-linecap:butt;stroke-linejoin:miter;stroke-miterlimit:10;stroke-dasharray:none;stroke-opacity:1"
         d="m 5009.5,1851.64 c 0,-46.96 -38.08,-85.04 -85.04,-85.04 -46.96,0 -85.04,38.08 -85.04,85.04 0,46.96 38.08,85.03 85.04,85.03 46.96,0 85.04,-38.07 85.04,-85.03 z" /><path
         id="path10554"
         style="fill:#000000;fill-opacity:1;fill-rule:evenodd;stroke:none"
         d="m 3308.77,1001.27 c 0,-46.961 -38.08,-85.036 -85.04,-85.036 -46.96,0 -85.03,38.075 -85.03,85.036 0,46.96 38.07,85.03 85.03,85.03 46.96,0 85.04,-38.07 85.04,-85.03" /><path
         id="path10556"
         style="fill:none;stroke:#000000;stroke-width:4.72424984;stroke-linecap:butt;stroke-linejoin:miter;stroke-miterlimit:10;stroke-dasharray:none;stroke-opacity:1"
         d="m 3308.77,1001.27 c 0,-46.961 -38.08,-85.036 -85.04,-85.036 -46.96,0 -85.03,38.075 -85.03,85.036 0,46.96 38.07,85.03 85.03,85.03 46.96,0 85.04,-38.07 85.04,-85.03 z" /><path
         id="path10558"
         style="fill:#000000;fill-opacity:1;fill-rule:evenodd;stroke:none"
         d="m 4159.13,1001.27 c 0,-46.961 -38.08,-85.036 -85.04,-85.036 -46.96,0 -85.03,38.075 -85.03,85.036 0,46.96 38.07,85.03 85.03,85.03 46.96,0 85.04,-38.07 85.04,-85.03" /><path
         id="path10560"
         style="fill:none;stroke:#000000;stroke-width:4.72424984;stroke-linecap:butt;stroke-linejoin:miter;stroke-miterlimit:10;stroke-dasharray:none;stroke-opacity:1"
         d="m 4159.13,1001.27 c 0,-46.961 -38.08,-85.036 -85.04,-85.036 -46.96,0 -85.03,38.075 -85.03,85.036 0,46.96 38.07,85.03 85.03,85.03 46.96,0 85.04,-38.07 85.04,-85.03 z" /><path
         id="path10562"
         style="fill:#000000;fill-opacity:1;fill-rule:evenodd;stroke:none"
         d="m 3308.77,150.906 c 0,-46.961 -38.08,-85.0388 -85.04,-85.0388 -46.96,0 -85.03,38.0778 -85.03,85.0388 0,46.961 38.07,85.035 85.03,85.035 46.96,0 85.04,-38.074 85.04,-85.035" /><path
         id="path10564"
         style="fill:none;stroke:#000000;stroke-width:4.72424984;stroke-linecap:butt;stroke-linejoin:miter;stroke-miterlimit:10;stroke-dasharray:none;stroke-opacity:1"
         d="m 3308.77,150.906 c 0,-46.961 -38.08,-85.0388 -85.04,-85.0388 -46.96,0 -85.03,38.0778 -85.03,85.0388 0,46.961 38.07,85.035 85.03,85.035 46.96,0 85.04,-38.074 85.04,-85.035 z" /><path
         id="path10566"
         style="fill:#000000;fill-opacity:1;fill-rule:evenodd;stroke:none"
         d="m 4159.13,150.906 c 0,-46.961 -38.08,-85.0388 -85.04,-85.0388 -46.96,0 -85.03,38.0778 -85.03,85.0388 0,46.961 38.07,85.035 85.03,85.035 46.96,0 85.04,-38.074 85.04,-85.035" /><path
         id="path10568"
         style="fill:none;stroke:#000000;stroke-width:4.72424984;stroke-linecap:butt;stroke-linejoin:miter;stroke-miterlimit:10;stroke-dasharray:none;stroke-opacity:1"
         d="m 4159.13,150.906 c 0,-46.961 -38.08,-85.0388 -85.04,-85.0388 -46.96,0 -85.03,38.0778 -85.03,85.0388 0,46.961 38.07,85.035 85.03,85.035 46.96,0 85.04,-38.074 85.04,-85.035 z" /><path
         id="path10570"
         style="fill:#000000;fill-opacity:1;fill-rule:evenodd;stroke:none"
         d="m 5009.5,150.906 c 0,-46.961 -38.08,-85.0388 -85.04,-85.0388 -46.96,0 -85.04,38.0778 -85.04,85.0388 0,46.961 38.08,85.035 85.04,85.035 46.96,0 85.04,-38.074 85.04,-85.035" /><path
         id="path10572"
         style="fill:none;stroke:#000000;stroke-width:4.72424984;stroke-linecap:butt;stroke-linejoin:miter;stroke-miterlimit:10;stroke-dasharray:none;stroke-opacity:1"
         d="m 5009.5,150.906 c 0,-46.961 -38.08,-85.0388 -85.04,-85.0388 -46.96,0 -85.04,38.0778 -85.04,85.0388 0,46.961 38.08,85.035 85.04,85.035 46.96,0 85.04,-38.074 85.04,-85.035 z" /><path
         id="path10574"
         style="fill:none;stroke:#000000;stroke-width:4.72424984;stroke-linecap:butt;stroke-linejoin:miter;stroke-miterlimit:10;stroke-dasharray:none;stroke-opacity:1"
         d="M 3223.73,1851.64 4924.46,150.906 3223.73,1001.27" /><path
         id="path10576"
         style="fill:none;stroke:#000000;stroke-width:4.72424984;stroke-linecap:butt;stroke-linejoin:miter;stroke-miterlimit:10;stroke-dasharray:none;stroke-opacity:1"
         d="M 3223.73,1851.64 4074.09,150.906" /><g
         id="g10578"><g
           clip-path="url(#clipPath10582)"
           id="g10580"><path
             id="path10586"
             style="fill:none;stroke:#000000;stroke-width:4.72424984;stroke-linecap:butt;stroke-linejoin:miter;stroke-miterlimit:10;stroke-dasharray:none;stroke-opacity:1"
             d="m 4074.09,1851.64 736.99,0" /></g></g><path
         id="path10588"
         style="fill:none;stroke:#000000;stroke-width:28.34550095;stroke-linecap:butt;stroke-linejoin:miter;stroke-miterlimit:10;stroke-dasharray:none;stroke-opacity:1"
         d="m 4652.34,1832.74 75.59,18.9 -75.59,18.89" /><g
         id="g10590"><g
           clip-path="url(#clipPath10594)"
           id="g10592"><path
             id="path10598"
             style="fill:none;stroke:#000000;stroke-width:4.72424984;stroke-linecap:butt;stroke-linejoin:miter;stroke-miterlimit:10;stroke-dasharray:none;stroke-opacity:1"
             d="m 3223.73,1851.64 736.98,0" /></g></g><path
         id="path10600"
         style="fill:none;stroke:#000000;stroke-width:28.34550095;stroke-linecap:butt;stroke-linejoin:miter;stroke-miterlimit:10;stroke-dasharray:none;stroke-opacity:1"
         d="m 3801.98,1832.74 75.59,18.9 -75.59,18.89" /><g
         id="g10602"><g
           clip-path="url(#clipPath10606)"
           id="g10604"><path
             id="path10610"
             style="fill:none;stroke:#000000;stroke-width:4.72424984;stroke-linecap:butt;stroke-linejoin:miter;stroke-miterlimit:10;stroke-dasharray:none;stroke-opacity:1"
             d="m 3223.73,1001.27 793.67,0" /></g></g><path
         id="path10612"
         style="fill:none;stroke:#000000;stroke-width:28.34550095;stroke-linecap:butt;stroke-linejoin:miter;stroke-miterlimit:10;stroke-dasharray:none;stroke-opacity:1"
         d="m 3858.67,982.371 75.59,18.899 -75.59,18.9" /><g
         id="g10614"><g
           clip-path="url(#clipPath10618)"
           id="g10616"><path
             id="path10622"
             style="fill:none;stroke:#000000;stroke-width:4.72424984;stroke-linecap:butt;stroke-linejoin:miter;stroke-miterlimit:10;stroke-dasharray:none;stroke-opacity:1"
             d="m 3223.73,150.906 736.98,0" /></g></g><path
         id="path10624"
         style="fill:none;stroke:#000000;stroke-width:28.34550095;stroke-linecap:butt;stroke-linejoin:miter;stroke-miterlimit:10;stroke-dasharray:none;stroke-opacity:1"
         d="m 3801.98,132.008 75.59,18.898 -75.59,18.895" /><g
         id="g10626"><g
           clip-path="url(#clipPath10630)"
           id="g10628"><path
             id="path10634"
             style="fill:none;stroke:#000000;stroke-width:4.72424984;stroke-linecap:butt;stroke-linejoin:miter;stroke-miterlimit:10;stroke-dasharray:none;stroke-opacity:1"
             d="m 4074.09,150.906 736.99,0" /></g></g><path
         id="path10636"
         style="fill:none;stroke:#000000;stroke-width:28.34550095;stroke-linecap:butt;stroke-linejoin:miter;stroke-miterlimit:10;stroke-dasharray:none;stroke-opacity:1"
         d="m 4652.34,132.008 75.59,18.898 -75.59,18.895" /><path
         id="path10638"
         style="fill:#000000;fill-opacity:1;fill-rule:evenodd;stroke:none"
         d="m 6426.77,1851.64 c 0,-46.96 -38.07,-85.04 -85.04,-85.04 -46.96,0 -85.03,38.08 -85.03,85.04 0,46.96 38.07,85.03 85.03,85.03 46.97,0 85.04,-38.07 85.04,-85.03" /><path
         id="path10640"
         style="fill:none;stroke:#000000;stroke-width:4.72424984;stroke-linecap:butt;stroke-linejoin:miter;stroke-miterlimit:10;stroke-dasharray:none;stroke-opacity:1"
         d="m 6426.77,1851.64 c 0,-46.96 -38.07,-85.04 -85.04,-85.04 -46.96,0 -85.03,38.08 -85.03,85.04 0,46.96 38.07,85.03 85.03,85.03 46.97,0 85.04,-38.07 85.04,-85.03 z" /><path
         id="path10642"
         style="fill:#000000;fill-opacity:1;fill-rule:evenodd;stroke:none"
         d="m 7277.14,1851.64 c 0,-46.96 -38.08,-85.04 -85.04,-85.04 -46.96,0 -85.04,38.08 -85.04,85.04 0,46.96 38.08,85.03 85.04,85.03 46.96,0 85.04,-38.07 85.04,-85.03" /><path
         id="path10644"
         style="fill:none;stroke:#000000;stroke-width:4.72424984;stroke-linecap:butt;stroke-linejoin:miter;stroke-miterlimit:10;stroke-dasharray:none;stroke-opacity:1"
         d="m 7277.14,1851.64 c 0,-46.96 -38.08,-85.04 -85.04,-85.04 -46.96,0 -85.04,38.08 -85.04,85.04 0,46.96 38.08,85.03 85.04,85.03 46.96,0 85.04,-38.07 85.04,-85.03 z" /><path
         id="path10646"
         style="fill:#000000;fill-opacity:1;fill-rule:evenodd;stroke:none"
         d="m 8127.5,1851.64 c 0,-46.96 -38.07,-85.04 -85.04,-85.04 -46.96,0 -85.03,38.08 -85.03,85.04 0,46.96 38.07,85.03 85.03,85.03 46.97,0 85.04,-38.07 85.04,-85.03" /><path
         id="path10648"
         style="fill:none;stroke:#000000;stroke-width:4.72424984;stroke-linecap:butt;stroke-linejoin:miter;stroke-miterlimit:10;stroke-dasharray:none;stroke-opacity:1"
         d="m 8127.5,1851.64 c 0,-46.96 -38.07,-85.04 -85.04,-85.04 -46.96,0 -85.03,38.08 -85.03,85.04 0,46.96 38.07,85.03 85.03,85.03 46.97,0 85.04,-38.07 85.04,-85.03 z" /><path
         id="path10650"
         style="fill:#000000;fill-opacity:1;fill-rule:evenodd;stroke:none"
         d="m 6426.77,1001.27 c 0,-46.961 -38.07,-85.036 -85.04,-85.036 -46.96,0 -85.03,38.075 -85.03,85.036 0,46.96 38.07,85.03 85.03,85.03 46.97,0 85.04,-38.07 85.04,-85.03" /><path
         id="path10652"
         style="fill:none;stroke:#000000;stroke-width:4.72424984;stroke-linecap:butt;stroke-linejoin:miter;stroke-miterlimit:10;stroke-dasharray:none;stroke-opacity:1"
         d="m 6426.77,1001.27 c 0,-46.961 -38.07,-85.036 -85.04,-85.036 -46.96,0 -85.03,38.075 -85.03,85.036 0,46.96 38.07,85.03 85.03,85.03 46.97,0 85.04,-38.07 85.04,-85.03 z" /><path
         id="path10654"
         style="fill:#000000;fill-opacity:1;fill-rule:evenodd;stroke:none"
         d="m 7277.14,1001.27 c 0,-46.961 -38.08,-85.036 -85.04,-85.036 -46.96,0 -85.04,38.075 -85.04,85.036 0,46.96 38.08,85.03 85.04,85.03 46.96,0 85.04,-38.07 85.04,-85.03" /><path
         id="path10656"
         style="fill:none;stroke:#000000;stroke-width:4.72424984;stroke-linecap:butt;stroke-linejoin:miter;stroke-miterlimit:10;stroke-dasharray:none;stroke-opacity:1"
         d="m 7277.14,1001.27 c 0,-46.961 -38.08,-85.036 -85.04,-85.036 -46.96,0 -85.04,38.075 -85.04,85.036 0,46.96 38.08,85.03 85.04,85.03 46.96,0 85.04,-38.07 85.04,-85.03 z" /><path
         id="path10658"
         style="fill:#000000;fill-opacity:1;fill-rule:evenodd;stroke:none"
         d="m 6426.77,150.906 c 0,-46.961 -38.07,-85.0388 -85.04,-85.0388 -46.96,0 -85.03,38.0778 -85.03,85.0388 0,46.961 38.07,85.035 85.03,85.035 46.97,0 85.04,-38.074 85.04,-85.035" /><path
         id="path10660"
         style="fill:none;stroke:#000000;stroke-width:4.72424984;stroke-linecap:butt;stroke-linejoin:miter;stroke-miterlimit:10;stroke-dasharray:none;stroke-opacity:1"
         d="m 6426.77,150.906 c 0,-46.961 -38.07,-85.0388 -85.04,-85.0388 -46.96,0 -85.03,38.0778 -85.03,85.0388 0,46.961 38.07,85.035 85.03,85.035 46.97,0 85.04,-38.074 85.04,-85.035 z" /><path
         id="path10662"
         style="fill:#000000;fill-opacity:1;fill-rule:evenodd;stroke:none"
         d="m 7277.14,150.906 c 0,-46.961 -38.08,-85.0388 -85.04,-85.0388 -46.96,0 -85.04,38.0778 -85.04,85.0388 0,46.961 38.08,85.035 85.04,85.035 46.96,0 85.04,-38.074 85.04,-85.035" /><path
         id="path10664"
         style="fill:none;stroke:#000000;stroke-width:4.72424984;stroke-linecap:butt;stroke-linejoin:miter;stroke-miterlimit:10;stroke-dasharray:none;stroke-opacity:1"
         d="m 7277.14,150.906 c 0,-46.961 -38.08,-85.0388 -85.04,-85.0388 -46.96,0 -85.04,38.0778 -85.04,85.0388 0,46.961 38.08,85.035 85.04,85.035 46.96,0 85.04,-38.074 85.04,-85.035 z" /><path
         id="path10666"
         style="fill:#000000;fill-opacity:1;fill-rule:evenodd;stroke:none"
         d="m 8127.5,150.906 c 0,-46.961 -38.07,-85.0388 -85.04,-85.0388 -46.96,0 -85.03,38.0778 -85.03,85.0388 0,46.961 38.07,85.035 85.03,85.035 46.97,0 85.04,-38.074 85.04,-85.035" /><path
         id="path10668"
         style="fill:none;stroke:#000000;stroke-width:4.72424984;stroke-linecap:butt;stroke-linejoin:miter;stroke-miterlimit:10;stroke-dasharray:none;stroke-opacity:1"
         d="m 8127.5,150.906 c 0,-46.961 -38.07,-85.0388 -85.04,-85.0388 -46.96,0 -85.03,38.0778 -85.03,85.0388 0,46.961 38.07,85.035 85.03,85.035 46.97,0 85.04,-38.074 85.04,-85.035 z" /><g
         id="g10670"><g
           clip-path="url(#clipPath10674)"
           id="g10672"><path
             id="path10678"
             style="fill:none;stroke:#000000;stroke-width:4.72424984;stroke-linecap:butt;stroke-linejoin:miter;stroke-miterlimit:10;stroke-dasharray:none;stroke-opacity:1"
             d="m 7192.1,1851.64 736.98,0" /></g></g><path
         id="path10680"
         style="fill:none;stroke:#000000;stroke-width:28.34550095;stroke-linecap:butt;stroke-linejoin:miter;stroke-miterlimit:10;stroke-dasharray:none;stroke-opacity:1"
         d="m 7770.35,1832.74 75.59,18.9 -75.59,18.89" /><g
         id="g10682"><g
           clip-path="url(#clipPath10686)"
           id="g10684"><path
             id="path10690"
             style="fill:none;stroke:#000000;stroke-width:4.72424984;stroke-linecap:butt;stroke-linejoin:miter;stroke-miterlimit:10;stroke-dasharray:none;stroke-opacity:1"
             d="m 6341.73,1851.64 736.99,0" /></g></g><path
         id="path10692"
         style="fill:none;stroke:#000000;stroke-width:28.34550095;stroke-linecap:butt;stroke-linejoin:miter;stroke-miterlimit:10;stroke-dasharray:none;stroke-opacity:1"
         d="m 6919.98,1832.74 75.59,18.9 -75.59,18.89" /><g
         id="g10694"><g
           clip-path="url(#clipPath10698)"
           id="g10696"><path
             id="path10702"
             style="fill:none;stroke:#000000;stroke-width:4.72424984;stroke-linecap:butt;stroke-linejoin:miter;stroke-miterlimit:10;stroke-dasharray:none;stroke-opacity:1"
             d="m 6341.73,1001.27 793.68,0" /></g></g><path
         id="path10704"
         style="fill:none;stroke:#000000;stroke-width:28.34550095;stroke-linecap:butt;stroke-linejoin:miter;stroke-miterlimit:10;stroke-dasharray:none;stroke-opacity:1"
         d="m 6976.68,982.371 75.58,18.899 -75.58,18.9" /><g
         id="g10706"><g
           clip-path="url(#clipPath10710)"
           id="g10708"><path
             id="path10714"
             style="fill:none;stroke:#000000;stroke-width:4.72424984;stroke-linecap:butt;stroke-linejoin:miter;stroke-miterlimit:10;stroke-dasharray:none;stroke-opacity:1"
             d="m 6341.73,150.906 736.99,0" /></g></g><path
         id="path10716"
         style="fill:none;stroke:#000000;stroke-width:28.34550095;stroke-linecap:butt;stroke-linejoin:miter;stroke-miterlimit:10;stroke-dasharray:none;stroke-opacity:1"
         d="m 6919.98,132.008 75.59,18.898 -75.59,18.895" /><g
         id="g10718"><g
           clip-path="url(#clipPath10722)"
           id="g10720"><path
             id="path10726"
             style="fill:none;stroke:#000000;stroke-width:4.72424984;stroke-linecap:butt;stroke-linejoin:miter;stroke-miterlimit:10;stroke-dasharray:none;stroke-opacity:1"
             d="m 7192.1,150.906 736.98,0" /></g></g><path
         id="path10728"
         style="fill:none;stroke:#000000;stroke-width:28.34550095;stroke-linecap:butt;stroke-linejoin:miter;stroke-miterlimit:10;stroke-dasharray:none;stroke-opacity:1"
         d="m 7770.35,132.008 75.59,18.898 -75.59,18.895" /></g></g></svg>