<?xml version="1.0" encoding="UTF-8" standalone="no"?>
<svg
   xmlns:dc="http://purl.org/dc/elements/1.1/"
   xmlns:cc="http://creativecommons.org/ns#"
   xmlns:rdf="http://www.w3.org/1999/02/22-rdf-syntax-ns#"
   xmlns:svg="http://www.w3.org/2000/svg"
   xmlns="http://www.w3.org/2000/svg"
   viewBox="0 0 301.37363 298.83475"
   height="298.83475"
   width="301.37363"
   xml:space="preserve"
   version="1.1"
   id="svg3994"><metadata
     id="metadata4000"><rdf:RDF><cc:Work
         rdf:about=""><dc:format>image/svg+xml</dc:format><dc:type
           rdf:resource="http://purl.org/dc/dcmitype/StillImage" /><dc:title></dc:title></cc:Work></rdf:RDF></metadata><defs
     id="defs3998"><clipPath
       id="clipPath4010"
       clipPathUnits="userSpaceOnUse"><path
         id="path4012"
         d="m 6.80078,5.60156 2800.00002,0 0,2580.00004 -2800.00002,0 0,-2580.00004 z" /></clipPath><clipPath
       id="clipPath4084"
       clipPathUnits="userSpaceOnUse"><path
         style="clip-rule:evenodd"
         id="path4086"
         d="m 6.80078,2585.6 0,-2579.99844 2799.99922,0 0,2579.99844 -2799.99922,0 z M 1009.08,1682.34 l -23.307,8.19 -39.054,-114.01 27.719,41.57 -4.411,-49.76 39.053,114.01 z" /></clipPath><clipPath
       id="clipPath4094"
       clipPathUnits="userSpaceOnUse"><path
         id="path4096"
         d="m 6.80078,5.60156 2800.00002,0 0,2580.00004 -2800.00002,0 0,-2580.00004 z" /></clipPath><clipPath
       id="clipPath4104"
       clipPathUnits="userSpaceOnUse"><path
         style="clip-rule:evenodd"
         id="path4106"
         d="m 6.80078,2585.6 0,-2579.99844 2799.99922,0 0,2579.99844 -2799.99922,0 z M 1215.06,1475.74 l -22.68,9.44 -44.72,-112.12 29.6,40.32 -6.92,-49.13 44.72,111.49 z" /></clipPath><clipPath
       id="clipPath4114"
       clipPathUnits="userSpaceOnUse"><path
         id="path4116"
         d="m 6.80078,5.60156 2800.00002,0 0,2580.00004 -2800.00002,0 0,-2580.00004 z" /></clipPath><clipPath
       id="clipPath4124"
       clipPathUnits="userSpaceOnUse"><path
         style="clip-rule:evenodd"
         id="path4126"
         d="m 6.80078,2585.6 0,-2579.99844 2799.99922,0 0,2579.99844 -2799.99922,0 z M 1255.37,1473.85 l -24.57,0 0,-120.31 12.6,48.5 11.97,-48.5 0,120.31 z" /></clipPath><clipPath
       id="clipPath4134"
       clipPathUnits="userSpaceOnUse"><path
         id="path4136"
         d="m 6.80078,5.60156 2800.00002,0 0,2580.00004 -2800.00002,0 0,-2580.00004 z" /></clipPath><clipPath
       id="clipPath4144"
       clipPathUnits="userSpaceOnUse"><path
         style="clip-rule:evenodd"
         id="path4146"
         d="m 6.80078,2585.6 0,-2579.99844 2799.99922,0 0,2579.99844 -2799.99922,0 z M 2077.39,1908.48 l 3.78,23.93 -119.05,19.53 46.61,-20.15 -50.39,-3.79 119.05,-19.52 z" /></clipPath><clipPath
       id="clipPath4154"
       clipPathUnits="userSpaceOnUse"><path
         id="path4156"
         d="m 6.80078,5.60156 2800.00002,0 0,2580.00004 -2800.00002,0 0,-2580.00004 z" /></clipPath><clipPath
       id="clipPath4164"
       clipPathUnits="userSpaceOnUse"><path
         style="clip-rule:evenodd"
         id="path4166"
         d="m 6.80078,2585.6 0,-2579.99844 2799.99922,0 0,2579.99844 -2799.99922,0 z M 2061.01,1890.84 l 0.63,23.94 -120.31,5.04 48.51,-14.49 -49.14,-10.08 120.31,-4.41 z" /></clipPath><clipPath
       id="clipPath4174"
       clipPathUnits="userSpaceOnUse"><path
         id="path4176"
         d="m 6.80078,5.60156 2800.00002,0 0,2580.00004 -2800.00002,0 0,-2580.00004 z" /></clipPath><clipPath
       id="clipPath4184"
       clipPathUnits="userSpaceOnUse"><path
         style="clip-rule:evenodd"
         id="path4186"
         d="m 6.80078,2585.6 0,-2579.99844 2799.99922,0 0,2579.99844 -2799.99922,0 z M 1028.61,1650.85 l -23.94,-0.63 3.78,-120.31 10.71,48.5 13.23,-47.87 -3.78,120.31 z" /></clipPath><clipPath
       id="clipPath4194"
       clipPathUnits="userSpaceOnUse"><path
         id="path4196"
         d="m 6.80078,5.60156 2800.00002,0 0,2580.00004 -2800.00002,0 0,-2580.00004 z" /></clipPath><clipPath
       id="clipPath4204"
       clipPathUnits="userSpaceOnUse"><path
         style="clip-rule:evenodd"
         id="path4206"
         d="m 6.80078,2585.6 0,-2579.99844 2799.99922,0 0,2579.99844 -2799.99922,0 z M 2424.46,1536.21 l 3.79,23.93 -119.05,19.53 46.61,-20.16 -50.4,-3.78 119.05,-19.52 z" /></clipPath><clipPath
       id="clipPath4214"
       clipPathUnits="userSpaceOnUse"><path
         id="path4216"
         d="m 6.80078,5.60156 2800.00002,0 0,2580.00004 -2800.00002,0 0,-2580.00004 z" /></clipPath><clipPath
       id="clipPath4224"
       clipPathUnits="userSpaceOnUse"><path
         style="clip-rule:evenodd"
         id="path4226"
         d="m 6.80078,2585.6 0,-2579.99844 2799.99922,0 0,2579.99844 -2799.99922,0 z M 2432.02,1525.5 l 0.64,23.93 -120.32,5.04 48.51,-14.49 -49.14,-10.07 120.31,-4.41 z" /></clipPath><clipPath
       id="clipPath4234"
       clipPathUnits="userSpaceOnUse"><path
         id="path4236"
         d="m 6.80078,5.60156 2800.00002,0 0,2580.00004 -2800.00002,0 0,-2580.00004 z" /></clipPath><clipPath
       id="clipPath4244"
       clipPathUnits="userSpaceOnUse"><path
         style="clip-rule:evenodd"
         id="path4246"
         d="m 6.80078,2585.6 0,-2579.99844 2799.99922,0 0,2579.99844 -2799.99922,0 z M 1890.94,2077.92 l -18.27,16.38 -81.25,-90.08 42.2,27.72 -23.94,-44.1 81.26,90.08 z" /></clipPath><clipPath
       id="clipPath4254"
       clipPathUnits="userSpaceOnUse"><path
         id="path4256"
         d="m 6.80078,5.60156 2800.00002,0 0,2580.00004 -2800.00002,0 0,-2580.00004 z" /></clipPath><clipPath
       id="clipPath4264"
       clipPathUnits="userSpaceOnUse"><path
         style="clip-rule:evenodd"
         id="path4266"
         d="m 6.80078,2585.6 0,-2579.99844 2799.99922,0 0,2579.99844 -2799.99922,0 z M 1902.91,2050.21 l -20.16,13.85 -69.92,-98.26 38.43,32.12 -18.9,-46.61 70.55,98.9 z" /></clipPath><clipPath
       id="clipPath4274"
       clipPathUnits="userSpaceOnUse"><path
         id="path4276"
         d="m 6.80078,5.60156 2800.00002,0 0,2580.00004 -2800.00002,0 0,-2580.00004 z" /></clipPath><clipPath
       id="clipPath4284"
       clipPathUnits="userSpaceOnUse"><path
         style="clip-rule:evenodd"
         id="path4286"
         d="m 6.80078,2585.6 0,-2579.99844 2799.99922,0 0,2579.99844 -2799.99922,0 z M 1933.14,2021.23 l -21.41,11.97 -58.59,-105.82 34.65,36.53 -13.23,-48.5 58.58,105.82 z" /></clipPath><clipPath
       id="clipPath4294"
       clipPathUnits="userSpaceOnUse"><path
         id="path4296"
         d="m 6.80078,5.60156 2800.00002,0 0,2580.00004 -2800.00002,0 0,-2580.00004 z" /></clipPath><clipPath
       id="clipPath4304"
       clipPathUnits="userSpaceOnUse"><path
         style="clip-rule:evenodd"
         id="path4306"
         d="m 6.80078,2585.6 0,-2579.99844 2799.99922,0 0,2579.99844 -2799.99922,0 z M 1957.08,2028.79 l -22.68,9.45 -44.72,-112.13 29.61,40.32 -6.93,-49.13 44.72,111.49 z" /></clipPath><clipPath
       id="clipPath4314"
       clipPathUnits="userSpaceOnUse"><path
         id="path4316"
         d="m 6.80078,5.60156 2800.00002,0 0,2580.00004 -2800.00002,0 0,-2580.00004 z" /></clipPath><clipPath
       id="clipPath4362"
       clipPathUnits="userSpaceOnUse"><rect
         transform="scale(1,-1)"
         y="-2401.6948"
         x="385.59323"
         height="2390.678"
         width="2423.7288"
         id="rect4364" /></clipPath></defs><g
     transform="matrix(1.25,0,0,-1.25,-48.199154,300.21185)"
     id="g4002"><g
       clip-path="url(#clipPath4362)"
       transform="scale(0.1,0.1)"
       id="g4004"><g
         id="g4006"><g
           clip-path="url(#clipPath4010)"
           id="g4008"><path
             id="path4014"
             style="fill:none;stroke:#000000;stroke-width:4.72424984;stroke-linecap:butt;stroke-linejoin:miter;stroke-miterlimit:10;stroke-dasharray:none;stroke-opacity:1"
             d="m 2064.16,2109.41 c 0,-50.44 -40.89,-91.33 -91.33,-91.33 -50.44,0 -91.34,40.89 -91.34,91.33 0,50.45 40.9,91.34 91.34,91.34 50.44,0 91.33,-40.89 91.33,-91.34 z" /><path
             id="path4016"
             style="fill:none;stroke:#000000;stroke-width:4.72424984;stroke-linecap:butt;stroke-linejoin:miter;stroke-miterlimit:10;stroke-dasharray:none;stroke-opacity:1"
             d="m 2246.83,1927.38 c 0,-50.45 -40.89,-91.34 -91.33,-91.34 -50.44,0 -91.34,40.89 -91.34,91.34 0,50.44 40.9,91.33 91.34,91.33 50.44,0 91.33,-40.89 91.33,-91.33 z" /><path
             id="path4018"
             style="fill:none;stroke:#000000;stroke-width:4.72424984;stroke-linecap:butt;stroke-linejoin:miter;stroke-miterlimit:10;stroke-dasharray:none;stroke-opacity:1"
             d="m 2429.5,1744.7 c 0,-50.44 -40.89,-91.33 -91.33,-91.33 -50.44,0 -91.33,40.89 -91.33,91.33 0,50.44 40.89,91.34 91.33,91.34 50.44,0 91.33,-40.9 91.33,-91.34 z" /><path
             id="path4020"
             style="fill:none;stroke:#000000;stroke-width:4.72424984;stroke-linecap:butt;stroke-linejoin:miter;stroke-miterlimit:10;stroke-dasharray:none;stroke-opacity:1"
             d="m 2611.55,1562.03 c 0,-50.44 -40.9,-91.33 -91.34,-91.33 -50.44,0 -91.33,40.89 -91.33,91.33 0,50.44 40.89,91.34 91.33,91.34 50.44,0 91.34,-40.9 91.34,-91.34 z" /><g
             transform="scale(10,10)"
             id="g4022"><text
               id="text4024"
               style="font-variant:normal;font-weight:normal;font-size:15.11760044px;font-family:Times;-inkscape-font-specification:Times-Roman;writing-mode:lr-tb;fill:#000000;fill-opacity:1;fill-rule:nonzero;stroke:none"
               transform="matrix(1,0,0,-1,191.825,207.288)"><tspan
                 id="tspan4026"
                 y="0"
                 x="0">D</tspan><tspan
                 id="tspan4028"
                 y="36.4715"
                 x="36.534">H</tspan><tspan
                 id="tspan4030"
                 y="54.6754"
                 x="55.1539">B</tspan><tspan
                 id="tspan4032"
                 y="18.2043"
                 x="18.2672">V</tspan></text>
</g><path
             id="path4034"
             style="fill:none;stroke:#000000;stroke-width:4.72424984;stroke-linecap:butt;stroke-linejoin:miter;stroke-miterlimit:10;stroke-dasharray:none;stroke-opacity:1"
             d="m 787.355,2109.41 c 0,-50.44 -40.894,-91.33 -91.335,-91.33 -50.442,0 -91.336,40.89 -91.336,91.33 0,50.45 40.894,91.34 91.336,91.34 50.441,0 91.335,-40.89 91.335,-91.34 z" /><path
             id="path4036"
             style="fill:none;stroke:#000000;stroke-width:4.72424984;stroke-linecap:butt;stroke-linejoin:miter;stroke-miterlimit:10;stroke-dasharray:none;stroke-opacity:1"
             d="m 969.398,1927.38 c 0,-50.45 -40.894,-91.34 -91.335,-91.34 -50.442,0 -91.336,40.89 -91.336,91.34 0,50.44 40.894,91.33 91.336,91.33 50.441,0 91.335,-40.89 91.335,-91.33 z" /><path
             id="path4038"
             style="fill:none;stroke:#000000;stroke-width:4.72424984;stroke-linecap:butt;stroke-linejoin:miter;stroke-miterlimit:10;stroke-dasharray:none;stroke-opacity:1"
             d="m 1152.07,1744.7 c 0,-50.44 -40.9,-91.33 -91.34,-91.33 -50.44,0 -91.332,40.89 -91.332,91.33 0,50.44 40.892,91.34 91.332,91.34 50.44,0 91.34,-40.9 91.34,-91.34 z" /><path
             id="path4040"
             style="fill:none;stroke:#000000;stroke-width:4.72424984;stroke-linecap:butt;stroke-linejoin:miter;stroke-miterlimit:10;stroke-dasharray:none;stroke-opacity:1"
             d="m 1334.74,1562.03 c 0,-50.44 -40.9,-91.33 -91.34,-91.33 -50.44,0 -91.33,40.89 -91.33,91.33 0,50.44 40.89,91.34 91.33,91.34 50.44,0 91.34,-40.9 91.34,-91.34 z" /><g
             transform="scale(10,10)"
             id="g4042"><text
               id="text4044"
               style="font-variant:normal;font-weight:normal;font-size:15.11760044px;font-family:Times;-inkscape-font-specification:Times-Roman;writing-mode:lr-tb;fill:#000000;fill-opacity:1;fill-rule:nonzero;stroke:none"
               transform="matrix(1,0,0,-1,64.1445,207.288)"><tspan
                 id="tspan4046"
                 y="0"
                 x="0">D</tspan><tspan
                 id="tspan4048"
                 y="36.4715"
                 x="36.4711">H</tspan><tspan
                 id="tspan4050"
                 y="54.6754"
                 x="55.154301">B</tspan><tspan
                 id="tspan4052"
                 y="18.2043"
                 x="18.2043">V</tspan></text>
</g><path
             id="path4054"
             style="fill:none;stroke:#000000;stroke-width:4.72424984;stroke-linecap:butt;stroke-linejoin:miter;stroke-miterlimit:10;stroke-dasharray:none;stroke-opacity:1"
             d="m 787.355,831.98 c 0,-50.441 -40.894,-91.335 -91.335,-91.335 -50.442,0 -91.336,40.894 -91.336,91.335 0,50.442 40.894,91.333 91.336,91.333 50.441,0 91.335,-40.891 91.335,-91.333 z" /><path
             id="path4056"
             style="fill:none;stroke:#000000;stroke-width:4.72424984;stroke-linecap:butt;stroke-linejoin:miter;stroke-miterlimit:10;stroke-dasharray:none;stroke-opacity:1"
             d="m 969.398,649.309 c 0,-50.442 -40.894,-91.336 -91.335,-91.336 -50.442,0 -91.336,40.894 -91.336,91.336 0,50.441 40.894,91.336 91.336,91.336 50.441,0 91.335,-40.895 91.335,-91.336 z" /><path
             id="path4058"
             style="fill:none;stroke:#000000;stroke-width:4.72424984;stroke-linecap:butt;stroke-linejoin:miter;stroke-miterlimit:10;stroke-dasharray:none;stroke-opacity:1"
             d="m 1152.07,466.637 c 0,-50.442 -40.9,-91.336 -91.34,-91.336 -50.44,0 -91.332,40.894 -91.332,91.336 0,50.441 40.892,91.336 91.332,91.336 50.44,0 91.34,-40.895 91.34,-91.336 z" /><path
             id="path4060"
             style="fill:none;stroke:#000000;stroke-width:4.72424984;stroke-linecap:butt;stroke-linejoin:miter;stroke-miterlimit:10;stroke-dasharray:none;stroke-opacity:1"
             d="m 1334.74,284.594 c 0,-50.442 -40.9,-91.332 -91.34,-91.332 -50.44,0 -91.33,40.89 -91.33,91.332 0,50.441 40.89,91.336 91.33,91.336 50.44,0 91.34,-40.895 91.34,-91.336 z" /><g
             transform="scale(10,10)"
             id="g4062"><text
               id="text4064"
               style="font-variant:normal;font-weight:normal;font-size:15.11760044px;font-family:Times;-inkscape-font-specification:Times-Roman;writing-mode:lr-tb;fill:#000000;fill-opacity:1;fill-rule:nonzero;stroke:none"
               transform="matrix(1,0,0,-1,64.1445,79.5445)"><tspan
                 id="tspan4066"
                 y="0"
                 x="0">D</tspan><tspan
                 id="tspan4068"
                 y="36.4711"
                 x="36.4711">H</tspan><tspan
                 id="tspan4070"
                 y="54.7383"
                 x="55.154301">B</tspan><tspan
                 id="tspan4072"
                 y="18.2672"
                 x="18.2043">V</tspan></text>
</g><path
             id="path4074"
             style="fill:none;stroke:#000000;stroke-width:4.72424984;stroke-linecap:butt;stroke-linejoin:miter;stroke-miterlimit:10;stroke-dasharray:none;stroke-opacity:1"
             d="m 1516.78,1836.04 c 0,-302.31 -245.07,-547.38 -547.382,-547.38 -302.308,0 -547.386,245.07 -547.386,547.38 0,302.31 245.078,547.38 547.386,547.38 302.312,0 547.382,-245.07 547.382,-547.38 z" /><path
             id="path4076"
             style="fill:none;stroke:#000000;stroke-width:4.72424984;stroke-linecap:butt;stroke-linejoin:miter;stroke-miterlimit:10;stroke-dasharray:none;stroke-opacity:1"
             d="m 2794.22,1836.04 c 0,-302.31 -245.08,-547.38 -547.38,-547.38 -302.31,0 -547.39,245.07 -547.39,547.38 0,302.31 245.08,547.38 547.39,547.38 302.3,0 547.38,-245.07 547.38,-547.38 z" /><path
             id="path4078"
             style="fill:none;stroke:#000000;stroke-width:4.72424984;stroke-linecap:butt;stroke-linejoin:miter;stroke-miterlimit:10;stroke-dasharray:none;stroke-opacity:1"
             d="m 1516.78,557.973 c 0,-302.309 -245.07,-547.3832 -547.382,-547.3832 -302.308,0 -547.386,245.0742 -547.386,547.3832 0,302.308 245.078,547.387 547.386,547.387 302.312,0 547.382,-245.079 547.382,-547.387 z" /></g></g><g
         id="g4080"><g
           clip-path="url(#clipPath4084)"
           id="g4082"><path
             id="path4088"
             style="fill:none;stroke:#000000;stroke-width:4.72424984;stroke-linecap:butt;stroke-linejoin:miter;stroke-miterlimit:10;stroke-dasharray:none;stroke-opacity:1"
             d="M 732.555,910.715 994.594,1677.3" /></g></g><g
         id="g4090"><g
           clip-path="url(#clipPath4094)"
           id="g4092"><path
             id="path4098"
             style="fill:none;stroke:#000000;stroke-width:28.34550095;stroke-linecap:butt;stroke-linejoin:miter;stroke-miterlimit:10;stroke-dasharray:none;stroke-opacity:1"
             d="m 970.027,1568.33 4.411,49.76 -27.719,-41.57" /></g></g><g
         id="g4100"><g
           clip-path="url(#clipPath4104)"
           id="g4102"><path
             id="path4108"
             style="fill:none;stroke:#000000;stroke-width:4.72424984;stroke-linecap:butt;stroke-linejoin:miter;stroke-miterlimit:10;stroke-dasharray:none;stroke-opacity:1"
             d="M 902.629,728.676 1200.57,1471.33" /></g></g><g
         id="g4110"><g
           clip-path="url(#clipPath4114)"
           id="g4112"><path
             id="path4118"
             style="fill:none;stroke:#000000;stroke-width:28.34550095;stroke-linecap:butt;stroke-linejoin:miter;stroke-miterlimit:10;stroke-dasharray:none;stroke-opacity:1"
             d="m 1170.34,1364.25 6.92,49.13 -29.6,-40.32" /></g></g><g
         id="g4120"><g
           clip-path="url(#clipPath4124)"
           id="g4122"><path
             id="path4128"
             style="fill:none;stroke:#000000;stroke-width:4.72424984;stroke-linecap:butt;stroke-linejoin:miter;stroke-miterlimit:10;stroke-dasharray:none;stroke-opacity:1"
             d="m 1243.4,369.633 0,1094.767" /></g></g><g
         id="g4130"><g
           clip-path="url(#clipPath4134)"
           id="g4132"><path
             id="path4138"
             style="fill:none;stroke:#000000;stroke-width:28.34550095;stroke-linecap:butt;stroke-linejoin:miter;stroke-miterlimit:10;stroke-dasharray:none;stroke-opacity:1"
             d="m 1255.37,1353.54 -11.97,48.5 -12.6,-48.5" /></g></g><g
         id="g4140"><g
           clip-path="url(#clipPath4144)"
           id="g4142"><path
             id="path4148"
             style="fill:none;stroke:#000000;stroke-width:4.72424984;stroke-linecap:butt;stroke-linejoin:miter;stroke-miterlimit:10;stroke-dasharray:none;stroke-opacity:1"
             d="M 786.727,2127.68 2070.46,1921.71" /></g></g><g
         id="g4150"><g
           clip-path="url(#clipPath4154)"
           id="g4152"><path
             id="path4158"
             style="fill:none;stroke:#000000;stroke-width:28.34550095;stroke-linecap:butt;stroke-linejoin:miter;stroke-miterlimit:10;stroke-dasharray:none;stroke-opacity:1"
             d="m 1958.34,1928 50.39,3.79 -46.61,20.15" /></g></g><g
         id="g4160"><g
           clip-path="url(#clipPath4164)"
           id="g4162"><path
             id="path4168"
             style="fill:none;stroke:#000000;stroke-width:4.72424984;stroke-linecap:butt;stroke-linejoin:miter;stroke-miterlimit:10;stroke-dasharray:none;stroke-opacity:1"
             d="M 975.695,1945.01 2052.2,1902.81" /></g></g><g
         id="g4170"><g
           clip-path="url(#clipPath4174)"
           id="g4172"><path
             id="path4178"
             style="fill:none;stroke:#000000;stroke-width:28.34550095;stroke-linecap:butt;stroke-linejoin:miter;stroke-miterlimit:10;stroke-dasharray:none;stroke-opacity:1"
             d="m 1940.7,1895.25 49.14,10.08 -48.51,14.49" /></g></g><g
         id="g4180"><g
           clip-path="url(#clipPath4184)"
           id="g4182"><path
             id="path4188"
             style="fill:none;stroke:#000000;stroke-width:4.72424984;stroke-linecap:butt;stroke-linejoin:miter;stroke-miterlimit:10;stroke-dasharray:none;stroke-opacity:1"
             d="M 1054.43,546.633 1017.27,1640.77" /></g></g><g
         id="g4190"><g
           clip-path="url(#clipPath4194)"
           id="g4192"><path
             id="path4198"
             style="fill:none;stroke:#000000;stroke-width:28.34550095;stroke-linecap:butt;stroke-linejoin:miter;stroke-miterlimit:10;stroke-dasharray:none;stroke-opacity:1"
             d="m 1032.39,1530.54 -13.23,47.87 -10.71,-48.5" /></g></g><g
         id="g4200"><g
           clip-path="url(#clipPath4204)"
           id="g4202"><path
             id="path4208"
             style="fill:none;stroke:#000000;stroke-width:4.72424984;stroke-linecap:butt;stroke-linejoin:miter;stroke-miterlimit:10;stroke-dasharray:none;stroke-opacity:1"
             d="m 1157.74,1756.67 1259.8,-207.24" /></g></g><g
         id="g4210"><g
           clip-path="url(#clipPath4214)"
           id="g4212"><path
             id="path4218"
             style="fill:none;stroke:#000000;stroke-width:28.34550095;stroke-linecap:butt;stroke-linejoin:miter;stroke-miterlimit:10;stroke-dasharray:none;stroke-opacity:1"
             d="m 2305.41,1555.73 50.4,3.78 -46.61,20.16" /></g></g><g
         id="g4220"><g
           clip-path="url(#clipPath4224)"
           id="g4222"><path
             id="path4228"
             style="fill:none;stroke:#000000;stroke-width:4.72424984;stroke-linecap:butt;stroke-linejoin:miter;stroke-miterlimit:10;stroke-dasharray:none;stroke-opacity:1"
             d="m 1340.41,1579.67 1082.8,-42.21" /></g></g><g
         id="g4230"><g
           clip-path="url(#clipPath4234)"
           id="g4232"><path
             id="path4238"
             style="fill:none;stroke:#000000;stroke-width:28.34550095;stroke-linecap:butt;stroke-linejoin:miter;stroke-miterlimit:10;stroke-dasharray:none;stroke-opacity:1"
             d="m 2311.71,1529.91 49.14,10.07 -48.51,14.49" /></g></g><g
         id="g4240"><g
           clip-path="url(#clipPath4244)"
           id="g4242"><path
             id="path4248"
             style="fill:none;stroke:#000000;stroke-width:4.72424984;stroke-linecap:butt;stroke-linejoin:miter;stroke-miterlimit:10;stroke-dasharray:none;stroke-opacity:1"
             d="M 786.727,874.184 1875.82,2078.55" /></g></g><g
         id="g4250"><g
           clip-path="url(#clipPath4254)"
           id="g4252"><path
             id="path4258"
             style="fill:none;stroke:#000000;stroke-width:28.34550095;stroke-linecap:butt;stroke-linejoin:miter;stroke-miterlimit:10;stroke-dasharray:none;stroke-opacity:1"
             d="m 1809.68,1987.84 23.94,44.1 -42.2,-27.72" /></g></g><g
         id="g4260"><g
           clip-path="url(#clipPath4264)"
           id="g4262"><path
             id="path4268"
             style="fill:none;stroke:#000000;stroke-width:4.72424984;stroke-linecap:butt;stroke-linejoin:miter;stroke-miterlimit:10;stroke-dasharray:none;stroke-opacity:1"
             d="M 939.16,716.707 1887.79,2048.95" /></g></g><g
         id="g4270"><g
           clip-path="url(#clipPath4274)"
           id="g4272"><path
             id="path4278"
             style="fill:none;stroke:#000000;stroke-width:28.34550095;stroke-linecap:butt;stroke-linejoin:miter;stroke-miterlimit:10;stroke-dasharray:none;stroke-opacity:1"
             d="m 1832.36,1951.31 18.9,46.61 -38.43,-32.12" /></g></g><g
         id="g4280"><g
           clip-path="url(#clipPath4284)"
           id="g4282"><path
             id="path4288"
             style="fill:none;stroke:#000000;stroke-width:4.72424984;stroke-linecap:butt;stroke-linejoin:miter;stroke-miterlimit:10;stroke-dasharray:none;stroke-opacity:1"
             d="m 1109.23,539.707 808.8,1479.003" /></g></g><g
         id="g4290"><g
           clip-path="url(#clipPath4294)"
           id="g4292"><path
             id="path4298"
             style="fill:none;stroke:#000000;stroke-width:28.34550095;stroke-linecap:butt;stroke-linejoin:miter;stroke-miterlimit:10;stroke-dasharray:none;stroke-opacity:1"
             d="m 1874.56,1915.41 13.23,48.5 -34.65,-36.53" /></g></g><g
         id="g4300"><g
           clip-path="url(#clipPath4304)"
           id="g4302"><path
             id="path4308"
             style="fill:none;stroke:#000000;stroke-width:4.72424984;stroke-linecap:butt;stroke-linejoin:miter;stroke-miterlimit:10;stroke-dasharray:none;stroke-opacity:1"
             d="M 1279.31,363.332 1942.59,2024.38" /></g></g><g
         id="g4310"><g
           clip-path="url(#clipPath4314)"
           id="g4312"><path
             id="path4318"
             style="fill:none;stroke:#000000;stroke-width:28.34550095;stroke-linecap:butt;stroke-linejoin:miter;stroke-miterlimit:10;stroke-dasharray:none;stroke-opacity:1"
             d="m 1912.36,1917.3 6.93,49.13 -29.61,-40.32" /></g></g><g
         transform="scale(10,10)"
         id="g4320"><text
           id="text4322"
           style="font-variant:normal;font-weight:normal;font-size:17.2154007px;font-family:CMR17;-inkscape-font-specification:CMR17;writing-mode:lr-tb;fill:#000000;fill-opacity:1;fill-rule:nonzero;stroke:none"
           transform="matrix(1,0,0,-1,139.64,243.08)"><tspan
             id="tspan4324"
             y="0"
             x="0">(</tspan></text>
<text
           id="text4326"
           style="font-variant:normal;font-weight:normal;font-size:17.2154007px;font-family:CMMI12;-inkscape-font-specification:CMMI12;writing-mode:lr-tb;fill:#000000;fill-opacity:1;fill-rule:nonzero;stroke:none"
           transform="matrix(1,0,0,-1,145.75992,243.08)"><tspan
             id="tspan4328"
             y="0"
             x="0">i</tspan></text>
<text
           id="text4330"
           style="font-variant:normal;font-weight:normal;font-size:17.2154007px;font-family:CMR17;-inkscape-font-specification:CMR17;writing-mode:lr-tb;fill:#000000;fill-opacity:1;fill-rule:nonzero;stroke:none"
           transform="matrix(1,0,0,-1,155.24,243.08)"><tspan
             id="tspan4332"
             y="0"
             x="0 16.322781">+1</tspan></text>
<text
           id="text4334"
           style="font-variant:normal;font-weight:normal;font-size:17.2154007px;font-family:CMMI12;-inkscape-font-specification:CMMI12;writing-mode:lr-tb;fill:#000000;fill-opacity:1;fill-rule:nonzero;stroke:none"
           transform="matrix(1,0,0,-1,179.4798,243.08)"><tspan
             id="tspan4336"
             y="0"
             x="0 7.560401">,j</tspan></text>
<text
           id="text4338"
           style="font-variant:normal;font-weight:normal;font-size:17.2154007px;font-family:CMR17;-inkscape-font-specification:CMR17;writing-mode:lr-tb;fill:#000000;fill-opacity:1;fill-rule:nonzero;stroke:none"
           transform="matrix(1,0,0,-1,198.6798,243.08)"><tspan
             id="tspan4340"
             y="0"
             x="0 16.322763 24.249388 -198">+1)(</tspan></text>
<text
           id="text4342"
           style="font-variant:normal;font-weight:normal;font-size:17.2154007px;font-family:CMMI12;-inkscape-font-specification:CMMI12;writing-mode:lr-tb;fill:#000000;fill-opacity:1;fill-rule:nonzero;stroke:none"
           transform="matrix(1,0,0,-1,6.79972,243.08)"><tspan
             id="tspan4344"
             y="0"
             x="0 5.7594481 13.319626">i,j</tspan></text>
<text
           id="text4346"
           style="font-variant:normal;font-weight:normal;font-size:17.2154007px;font-family:CMR17;-inkscape-font-specification:CMR17;writing-mode:lr-tb;fill:#000000;fill-opacity:1;fill-rule:nonzero;stroke:none"
           transform="matrix(1,0,0,-1,31.87982,243.08)"><tspan
             id="tspan4348"
             y="0"
             x="0 16.20286 24.129501">+1)</tspan><tspan
             id="tspan4350"
             y="147.36"
             x="-31.1996">(</tspan></text>
<text
           id="text4352"
           style="font-variant:normal;font-weight:normal;font-size:17.2154007px;font-family:CMMI12;-inkscape-font-specification:CMMI12;writing-mode:lr-tb;fill:#000000;fill-opacity:1;fill-rule:nonzero;stroke:none"
           transform="matrix(1,0,0,-1,6.80014,95.72)"><tspan
             id="tspan4354"
             y="0"
             x="0 5.7594481 13.319626">i,j</tspan></text>
<text
           id="text4356"
           style="font-variant:normal;font-weight:normal;font-size:17.2154007px;font-family:CMR17;-inkscape-font-specification:CMR17;writing-mode:lr-tb;fill:#000000;fill-opacity:1;fill-rule:nonzero;stroke:none"
           transform="matrix(1,0,0,-1,28.03994,95.72)"><tspan
             id="tspan4358"
             y="0"
             x="0">)</tspan></text>
</g></g></g></svg>