<?xml version="1.0" encoding="UTF-8" standalone="no"?>
<!-- Created with Inkscape (http://www.inkscape.org/) -->

<svg
   xmlns:dc="http://purl.org/dc/elements/1.1/"
   xmlns:cc="http://creativecommons.org/ns#"
   xmlns:rdf="http://www.w3.org/1999/02/22-rdf-syntax-ns#"
   xmlns:svg="http://www.w3.org/2000/svg"
   xmlns="http://www.w3.org/2000/svg"
   xmlns:sodipodi="http://sodipodi.sourceforge.net/DTD/sodipodi-0.dtd"
   xmlns:inkscape="http://www.inkscape.org/namespaces/inkscape"
   id="svg3371"
   version="1.1"
   inkscape:version="0.91 r13725"
   xml:space="preserve"
   width="176.28624"
   height="163.31799"
   viewBox="0 0 176.28624 163.31799"
   sodipodi:docname="method_classes.svg"
   inkscape:export-filename="/Users/scanzar/ttic/homepage/papers/method_classes.png"
   inkscape:export-xdpi="90"
   inkscape:export-ydpi="90"><metadata
     id="metadata3377"><rdf:RDF><cc:Work
         rdf:about=""><dc:format>image/svg+xml</dc:format><dc:type
           rdf:resource="http://purl.org/dc/dcmitype/StillImage" /><dc:title></dc:title></cc:Work></rdf:RDF></metadata><defs
     id="defs3375"><clipPath
       clipPathUnits="userSpaceOnUse"
       id="clipPath3387"><path
         d="M 0,0 330,0 330,168 0,168 0,0 Z"
         id="path3389"
         inkscape:connector-curvature="0" /></clipPath><clipPath
       clipPathUnits="userSpaceOnUse"
       id="clipPath4287"><rect
         id="rect4289"
         width="243.63811"
         height="174.7635"
         x="3.3491869"
         y="-168.53537"
         transform="scale(1,-1)" /></clipPath><clipPath
       clipPathUnits="userSpaceOnUse"
       id="clipPath4293"><rect
         id="rect4295"
         width="249.72908"
         height="131.18976"
         x="1.4750472"
         y="-168.53537"
         transform="scale(1,-1)" /></clipPath></defs><sodipodi:namedview
     pagecolor="#ffffff"
     bordercolor="#666666"
     borderopacity="1"
     objecttolerance="10"
     gridtolerance="10"
     guidetolerance="10"
     inkscape:pageopacity="0"
     inkscape:pageshadow="2"
     inkscape:window-width="1021"
     inkscape:window-height="665"
     id="namedview3373"
     showgrid="false"
     inkscape:zoom="1.7074504"
     inkscape:cx="14.237518"
     inkscape:cy="45.480437"
     inkscape:window-x="0"
     inkscape:window-y="0"
     inkscape:window-maximized="0"
     inkscape:current-layer="g3379"
     fit-margin-top="0"
     fit-margin-left="0"
     fit-margin-right="0"
     fit-margin-bottom="0" /><g
     id="g3379"
     inkscape:groupmode="layer"
     inkscape:label="method_classes"
     transform="matrix(1.25,0,0,-1.25,-146.41714,209.5858)"><g
       id="g3381" /><g
       clip-path="url(#clipPath4293)"
       id="g3385"
       transform="matrix(0.56472797,0,0,1,116.30071,-0.33136095)"><path
         inkscape:connector-curvature="0"
         id="path3391"
         style="fill:#ffffff;fill-opacity:0;fill-rule:evenodd;stroke:none"
         d="M 0,168 330,168 330,0 0,0 0,168 Z" /><g
         transform="matrix(7.874016e-5,0,0,7.874016e-5,119.2954,151.125)"
         id="g3393"><path
           inkscape:connector-curvature="0"
           id="path3395"
           style="fill:none;stroke:#000000;stroke-width:19050;stroke-linecap:butt;stroke-linejoin:round;stroke-miterlimit:10;stroke-dasharray:none;stroke-opacity:1"
           d="M -3.356934e-4,0.04364014 111414,50402.98" /></g><g
         transform="matrix(-7.874016e-5,0,0,7.874016e-5,110.5228,155.0937)"
         id="g3397"><path
           inkscape:connector-curvature="0"
           id="path3399"
           style="fill:none;stroke:#000000;stroke-width:19050;stroke-linecap:butt;stroke-linejoin:round;stroke-miterlimit:10;stroke-dasharray:none;stroke-opacity:1"
           d="M -0.03274536,0.04364014 111414,50402.98" /></g><g
         transform="matrix(7.874016e-5,0,0,7.874016e-5,136.8409,163.0313)"
         id="g3401"><path
           inkscape:connector-curvature="0"
           id="path3403"
           style="fill:none;stroke:#000000;stroke-width:19050;stroke-linecap:butt;stroke-linejoin:round;stroke-miterlimit:10;stroke-dasharray:none;stroke-opacity:1"
           d="M -0.03173828,0.06878662 111413.9,50403" /></g><g
         transform="matrix(7.874016e-5,0,0,7.874016e-5,141.2272,159.0624)"
         id="g3405"><path
           inkscape:connector-curvature="0"
           id="path3407"
           style="fill:none;stroke:#000000;stroke-width:19050;stroke-linecap:butt;stroke-linejoin:round;stroke-miterlimit:10;stroke-dasharray:none;stroke-opacity:1"
           d="M 0.06414795,-0.02514648 111414,0.9437866" /></g><g
         transform="matrix(7.874016e-5,0,0,-7.874016e-5,110.5228,167)"
         id="g3409"><path
           inkscape:connector-curvature="0"
           id="path3411"
           style="fill:none;stroke:#000000;stroke-width:19050;stroke-linecap:butt;stroke-linejoin:round;stroke-miterlimit:10;stroke-dasharray:none;stroke-opacity:1"
           d="M 0.03274536,0 55707,50402.93" /></g><g
         transform="matrix(-7.874016e-5,0,0,7.874016e-5,136.8409,159.0625)"
         id="g3413"><path
           inkscape:connector-curvature="0"
           id="path3415"
           style="fill:none;stroke:#000000;stroke-width:19050;stroke-linecap:butt;stroke-linejoin:round;stroke-miterlimit:10;stroke-dasharray:none;stroke-opacity:1"
           d="M 0.03173828,0.06878662 55707.1,50403" /></g><g
         transform="matrix(7.874016e-5,0,0,7.874016e-5,136.8409,151.125)"
         id="g3417"><path
           inkscape:connector-curvature="0"
           id="path3419"
           style="fill:none;stroke:#000000;stroke-width:19050;stroke-linecap:butt;stroke-linejoin:round;stroke-miterlimit:10;stroke-dasharray:none;stroke-opacity:1"
           d="M -0.03173828,0.04364014 111413.9,50402.98" /></g><g
         transform="matrix(-7.874016e-5,0,0,-7.874016e-5,123.6818,163.0313)"
         id="g3421"><path
           inkscape:connector-curvature="0"
           id="path3423"
           style="fill:none;stroke:#000000;stroke-width:19050;stroke-linecap:butt;stroke-linejoin:round;stroke-miterlimit:10;stroke-dasharray:none;stroke-opacity:1"
           d="M 0.03240967,-0.06878662 111414.1,50402.86" /></g><path
         inkscape:connector-curvature="0"
         id="path3425"
         style="fill:#929292;fill-opacity:1;fill-rule:evenodd;stroke:none"
         d="m 173.625,99.73859 4.3829,0 0,-11.86363 -4.3829,0 0,11.86363 z" /><g
         transform="matrix(7.874016e-5,0,0,-7.874016e-5,173.625,99.73859)"
         id="g3427"><path
           inkscape:connector-curvature="0"
           id="path3429"
           style="fill:none;stroke:#929292;stroke-width:12700;stroke-linecap:butt;stroke-linejoin:miter;stroke-miterlimit:8;stroke-dasharray:none;stroke-opacity:1"
           d="m 0.08135986,-0.04760742 55661.90864014,0 0,150668.04760742 -55661.90864014,0 0,-150668.04760742 z" /></g><path
         inkscape:connector-curvature="0"
         id="path3431"
         style="fill:#929292;fill-opacity:1;fill-rule:evenodd;stroke:none"
         d="m 199.922,99.73859 8.7656,0 0,-11.86363 -8.7656,0 0,11.86363 z" /><g
         transform="matrix(7.874016e-5,0,0,-7.874016e-5,199.922,99.73859)"
         id="g3433"><path
           inkscape:connector-curvature="0"
           id="path3435"
           style="fill:none;stroke:#929292;stroke-width:12700;stroke-linecap:butt;stroke-linejoin:miter;stroke-miterlimit:8;stroke-dasharray:none;stroke-opacity:1"
           d="M -0.02478027,-0.04760742 111324,-0.04760742 111324,150668 l -111324.02478027,0 0,-150668.04760742 z" /></g><path
         inkscape:connector-curvature="0"
         id="path3437"
         style="fill:#929292;fill-opacity:1;fill-rule:evenodd;stroke:none"
         d="m 239.3672,99.73859 4.3829,0 0,-11.86363 -4.3829,0 0,11.86363 z" /><g
         transform="matrix(7.874016e-5,0,0,-7.874016e-5,239.3672,99.73859)"
         id="g3439"><path
           inkscape:connector-curvature="0"
           id="path3441"
           style="fill:none;stroke:#929292;stroke-width:12700;stroke-linecap:butt;stroke-linejoin:miter;stroke-miterlimit:8;stroke-dasharray:none;stroke-opacity:1"
           d="m 0.05639648,-0.04760742 55661.91360352,0 0,150668.04760742 -55661.91360352,0 0,-150668.04760742 z" /></g><g
         transform="matrix(7.874016e-5,0,0,-7.874016e-5,178.0079,87.87496)"
         id="g3443"><path
           inkscape:connector-curvature="0"
           id="path3445"
           style="fill:none;stroke:#000000;stroke-width:12700;stroke-linecap:butt;stroke-linejoin:round;stroke-miterlimit:10;stroke-dasharray:none;stroke-opacity:1"
           d="M -0.00610352,-0.01553345 779265,0.9533997" /></g><g
         transform="matrix(-7.874016e-5,0,0,7.874016e-5,217.4532,107.6477)"
         id="g3447"><path
           inkscape:connector-curvature="0"
           id="path3449"
           style="fill:none;stroke:#000000;stroke-width:28575;stroke-linecap:butt;stroke-linejoin:round;stroke-miterlimit:10;stroke-dasharray:none;stroke-opacity:1"
           d="M -0.04400635,0.04827881 0.9249268,1.017212" /></g><g
         transform="matrix(-7.874016e-5,0,0,7.874016e-5,243.7501,103.6932)"
         id="g3451"><path
           inkscape:connector-curvature="0"
           id="path3453"
           style="fill:none;stroke:#000000;stroke-width:28575;stroke-linecap:butt;stroke-linejoin:round;stroke-miterlimit:10;stroke-dasharray:none;stroke-opacity:1"
           d="M 0.03106689,0.04794312 55661.95,1.016876" /></g><g
         transform="matrix(-7.874016e-5,0,0,7.874016e-5,208.6876,107.6477)"
         id="g3455"><path
           inkscape:connector-curvature="0"
           id="path3457"
           style="fill:none;stroke:#000000;stroke-width:28575;stroke-linecap:butt;stroke-linejoin:round;stroke-miterlimit:10;stroke-dasharray:none;stroke-opacity:1"
           d="M -0.02514648,0.04827881 55661.89,1.017212" /></g><g
         transform="matrix(-7.874016e-5,0,0,7.874016e-5,178.0079,107.6477)"
         id="g3459"><path
           inkscape:connector-curvature="0"
           id="path3461"
           style="fill:none;stroke:#000000;stroke-width:28575;stroke-linecap:butt;stroke-linejoin:round;stroke-miterlimit:10;stroke-dasharray:none;stroke-opacity:1"
           d="M 0.00610352,0.04827881 55661.92,1.017212" /></g><g
         transform="matrix(-7.874016e-5,0,0,7.874016e-5,204.3048,103.6932)"
         id="g3463"><path
           inkscape:connector-curvature="0"
           id="path3465"
           style="fill:none;stroke:#000000;stroke-width:28575;stroke-linecap:butt;stroke-linejoin:round;stroke-miterlimit:10;stroke-dasharray:none;stroke-opacity:1"
           d="M -0.08154297,0.04794312 55661.83,1.016876" /></g><g
         transform="matrix(-7.874016e-5,0,0,7.874016e-5,178.0079,111.6022)"
         id="g3467"><path
           inkscape:connector-curvature="0"
           id="path3469"
           style="fill:none;stroke:#000000;stroke-width:28575;stroke-linecap:butt;stroke-linejoin:round;stroke-miterlimit:10;stroke-dasharray:none;stroke-opacity:1"
           d="M 0.00610352,-0.01721191 55661.92,0.9517212" /></g><g
         transform="matrix(-7.874016e-5,0,0,7.874016e-5,243.7501,107.6477)"
         id="g3471"><path
           inkscape:connector-curvature="0"
           id="path3473"
           style="fill:none;stroke:#000000;stroke-width:28575;stroke-linecap:butt;stroke-linejoin:round;stroke-miterlimit:10;stroke-dasharray:none;stroke-opacity:1"
           d="M 0.03106689,0.04827881 55661.95,1.017212" /></g><g
         transform="matrix(-7.874016e-5,0,0,7.874016e-5,178.0079,115.5568)"
         id="g3475"><path
           inkscape:connector-curvature="0"
           id="path3477"
           style="fill:none;stroke:#000000;stroke-width:28575;stroke-linecap:butt;stroke-linejoin:round;stroke-miterlimit:10;stroke-dasharray:none;stroke-opacity:1"
           d="M 0.00610352,-0.01687622 55661.92,0.9520569" /></g><g
         transform="matrix(-7.874016e-5,0,0,7.874016e-5,178.0079,103.6932)"
         id="g3479"><path
           inkscape:connector-curvature="0"
           id="path3481"
           style="fill:none;stroke:#000000;stroke-width:28575;stroke-linecap:butt;stroke-linejoin:round;stroke-miterlimit:10;stroke-dasharray:none;stroke-opacity:1"
           d="M 0.00610352,0.04794312 55661.92,1.016876" /></g><g
         transform="matrix(-7.874016e-5,0,0,7.874016e-5,243.7501,111.6022)"
         id="g3483"><path
           inkscape:connector-curvature="0"
           id="path3485"
           style="fill:none;stroke:#000000;stroke-width:28575;stroke-linecap:butt;stroke-linejoin:round;stroke-miterlimit:10;stroke-dasharray:none;stroke-opacity:1"
           d="M 0.03106689,-0.01721191 55661.95,0.9517212" /></g><g
         transform="matrix(-7.874016e-5,0,0,7.874016e-5,178.0079,119.5113)"
         id="g3487"><path
           inkscape:connector-curvature="0"
           id="path3489"
           style="fill:none;stroke:#cbcbcb;stroke-width:28575;stroke-linecap:butt;stroke-linejoin:round;stroke-miterlimit:10;stroke-dasharray:none;stroke-opacity:1"
           d="M 0.00610352,-0.01654053 55661.92,0.9523926" /></g><g
         transform="matrix(-7.874016e-5,0,0,7.874016e-5,178.0079,123.4659)"
         id="g3491"><path
           inkscape:connector-curvature="0"
           id="path3493"
           style="fill:none;stroke:#cbcbcb;stroke-width:28575;stroke-linecap:butt;stroke-linejoin:round;stroke-miterlimit:10;stroke-dasharray:none;stroke-opacity:1"
           d="M 0.00610352,-0.01620483 55661.92,0.9527283" /></g><g
         transform="matrix(-7.874016e-5,0,0,7.874016e-5,204.3048,119.5113)"
         id="g3495"><path
           inkscape:connector-curvature="0"
           id="path3497"
           style="fill:none;stroke:#cbcbcb;stroke-width:28575;stroke-linecap:butt;stroke-linejoin:round;stroke-miterlimit:10;stroke-dasharray:none;stroke-opacity:1"
           d="M -0.08154297,-0.01654053 55661.83,0.9523926" /></g><g
         transform="matrix(-7.874016e-5,0,0,7.874016e-5,208.6876,115.5568)"
         id="g3499"><path
           inkscape:connector-curvature="0"
           id="path3501"
           style="fill:none;stroke:#cbcbcb;stroke-width:28575;stroke-linecap:butt;stroke-linejoin:round;stroke-miterlimit:10;stroke-dasharray:none;stroke-opacity:1"
           d="M -0.02514648,-0.01687622 55661.89,0.9520569" /></g><g
         transform="matrix(-7.874016e-5,0,0,7.874016e-5,243.7501,123.4659)"
         id="g3503"><path
           inkscape:connector-curvature="0"
           id="path3505"
           style="fill:none;stroke:#cbcbcb;stroke-width:28575;stroke-linecap:butt;stroke-linejoin:round;stroke-miterlimit:10;stroke-dasharray:none;stroke-opacity:1"
           d="M 0.03106689,-0.01620483 55661.95,0.9527283" /></g><g
         transform="matrix(-7.874016e-5,0,0,7.874016e-5,243.7501,115.5568)"
         id="g3507"><path
           inkscape:connector-curvature="0"
           id="path3509"
           style="fill:none;stroke:#cbcbcb;stroke-width:28575;stroke-linecap:butt;stroke-linejoin:round;stroke-miterlimit:10;stroke-dasharray:none;stroke-opacity:1"
           d="M 0.03106689,-0.01687622 55661.95,0.9520569" /></g><g
         transform="matrix(7.874016e-5,0,0,7.874016e-5,178.0079,119.5113)"
         id="g3511"><path
           inkscape:connector-curvature="0"
           id="path3513"
           style="fill:none;stroke:#000000;stroke-width:12700;stroke-linecap:butt;stroke-linejoin:round;stroke-miterlimit:10;stroke-dasharray:none;stroke-opacity:1"
           d="M -0.00610352,-0.01654053 111324,50222.98" /></g><g
         transform="matrix(7.874016e-5,0,0,-7.874016e-5,186.7735,123.4659)"
         id="g3515"><path
           inkscape:connector-curvature="0"
           id="path3517"
           style="fill:none;stroke:#000000;stroke-width:12700;stroke-linecap:butt;stroke-linejoin:round;stroke-miterlimit:10;stroke-dasharray:none;stroke-opacity:1"
           d="M 0.01275635,0.01620483 166985,50223.02" /></g><g
         transform="matrix(7.874016e-5,0,0,7.874016e-5,208.6876,115.5568)"
         id="g3519"><path
           inkscape:connector-curvature="0"
           id="path3521"
           style="fill:none;stroke:#000000;stroke-width:12700;stroke-linecap:butt;stroke-linejoin:round;stroke-miterlimit:10;stroke-dasharray:none;stroke-opacity:1"
           d="M 0.02514648,-0.01687622 166985,50222.98" /></g><g
         transform="matrix(7.874016e-5,0,0,-7.874016e-5,221.836,119.5113)"
         id="g3523"><path
           inkscape:connector-curvature="0"
           id="path3525"
           style="fill:none;stroke:#000000;stroke-width:12700;stroke-linecap:butt;stroke-linejoin:round;stroke-miterlimit:10;stroke-dasharray:none;stroke-opacity:1"
           d="M -0.01239014,0.01654053 222647.1,50223.02" /></g><g
         transform="matrix(7.874016e-5,0,0,7.874016e-5,178.0079,123.4659)"
         id="g3527"><path
           inkscape:connector-curvature="0"
           id="path3529"
           style="fill:none;stroke:#000000;stroke-width:12700;stroke-linecap:butt;stroke-linejoin:round;stroke-miterlimit:10;stroke-dasharray:none;stroke-opacity:1"
           d="M -0.00610352,-0.01620483 389632,100444.9" /></g><g
         transform="matrix(7.874016e-5,0,0,-7.874016e-5,208.6876,131.375)"
         id="g3531"><path
           inkscape:connector-curvature="0"
           id="path3533"
           style="fill:none;stroke:#000000;stroke-width:12700;stroke-linecap:butt;stroke-linejoin:round;stroke-miterlimit:10;stroke-dasharray:none;stroke-opacity:1"
           d="M 0.02514648,0.01257324 389632.1,100445" /></g><path
         inkscape:connector-curvature="0"
         id="path3535"
         style="fill:#929292;fill-opacity:1;fill-rule:evenodd;stroke:none"
         d="m 173.625,60.12496 4.3751,0 0,-11.75 -4.3751,0 0,11.75 z" /><g
         transform="matrix(7.874016e-5,0,0,-7.874016e-5,173.625,60.12496)"
         id="g3537"><path
           inkscape:connector-curvature="0"
           id="path3539"
           style="fill:none;stroke:#000000;stroke-width:12700;stroke-linecap:butt;stroke-linejoin:miter;stroke-miterlimit:8;stroke-dasharray:none;stroke-opacity:1"
           d="m 0.08135986,-0.01553345 55563.07864014,0 0,149225.01553345 -55563.07864014,0 0,-149225.01553345 z" /></g><path
         inkscape:connector-curvature="0"
         id="path3541"
         style="fill:#929292;fill-opacity:1;fill-rule:evenodd;stroke:none"
         d="m 199.875,60.12496 8.75,0 0,-11.75 -8.75,0 0,11.75 z" /><g
         transform="matrix(7.874016e-5,0,0,-7.874016e-5,199.875,60.12496)"
         id="g3543"><path
           inkscape:connector-curvature="0"
           id="path3545"
           style="fill:none;stroke:#000000;stroke-width:12700;stroke-linecap:butt;stroke-linejoin:miter;stroke-miterlimit:8;stroke-dasharray:none;stroke-opacity:1"
           d="m 0.08135986,-0.01553345 111125.01864014,0 0,149225.01553345 -111125.01864014,0 0,-149225.01553345 z" /></g><path
         inkscape:connector-curvature="0"
         id="path3547"
         style="fill:#929292;fill-opacity:1;fill-rule:evenodd;stroke:none"
         d="m 239.375,60.12496 4.3751,0 0,-11.75 -4.3751,0 0,11.75 z" /><g
         transform="matrix(7.874016e-5,0,0,-7.874016e-5,239.375,60.12496)"
         id="g3549"><path
           inkscape:connector-curvature="0"
           id="path3551"
           style="fill:none;stroke:#000000;stroke-width:12700;stroke-linecap:butt;stroke-linejoin:miter;stroke-miterlimit:8;stroke-dasharray:none;stroke-opacity:1"
           d="m 0.08135986,-0.01553345 55563.07864014,0 0,149225.01553345 -55563.07864014,0 0,-149225.01553345 z" /></g><g
         transform="matrix(7.874016e-5,0,0,-7.874016e-5,178,54.25)"
         id="g3553"><path
           inkscape:connector-curvature="0"
           id="path3555"
           style="fill:none;stroke:#000000;stroke-width:12700;stroke-linecap:butt;stroke-linejoin:round;stroke-miterlimit:10;stroke-dasharray:none;stroke-opacity:1"
           d="M 0,0 277813.1,1.01738" /></g><g
         transform="matrix(7.874016e-5,0,0,-7.874016e-5,208.625,54.25)"
         id="g3557"><path
           inkscape:connector-curvature="0"
           id="path3559"
           style="fill:none;stroke:#000000;stroke-width:12700;stroke-linecap:butt;stroke-linejoin:round;stroke-miterlimit:10;stroke-dasharray:none;stroke-opacity:1"
           d="M 0.08135986,0 390525.1,1.01738" /></g><g
         transform="matrix(7.874016e-5,0,0,7.874016e-5,178,56.25)"
         id="g3561"><path
           inkscape:connector-curvature="0"
           id="path3563"
           style="fill:none;stroke:#000000;stroke-width:12700;stroke-linecap:butt;stroke-linejoin:round;stroke-miterlimit:10;stroke-dasharray:none;stroke-opacity:1"
           d="M 0,0 388938.1,200025" /></g><g
         transform="matrix(7.874016e-5,0,0,-7.874016e-5,208.625,72)"
         id="g3565"><path
           inkscape:connector-curvature="0"
           id="path3567"
           style="fill:none;stroke:#000000;stroke-width:12700;stroke-linecap:butt;stroke-linejoin:round;stroke-miterlimit:10;stroke-dasharray:none;stroke-opacity:1"
           d="M 0.08135986,0 390525.1,200025" /></g><path
         inkscape:connector-curvature="0"
         id="path3569"
         style="fill:#000000;fill-opacity:1;fill-rule:evenodd;stroke:none"
         d="m 173.625,20.62495 4.25,0 0,-7.87503 -4.25,0 0,7.87503 z" /><g
         transform="matrix(7.874016e-5,0,0,-7.874016e-5,173.625,20.62495)"
         id="g3571"><path
           inkscape:connector-curvature="0"
           id="path3573"
           style="fill:none;stroke:#000000;stroke-width:12700;stroke-linecap:butt;stroke-linejoin:miter;stroke-miterlimit:8;stroke-dasharray:none;stroke-opacity:1"
           d="m 0.08135986,0.00323486 53974.99864014,0 0,100012.99676514 -53974.99864014,0 0,-100012.99676514 z" /></g><path
         inkscape:connector-curvature="0"
         id="path3575"
         style="fill:#929292;fill-opacity:1;fill-rule:evenodd;stroke:none"
         d="m 199.875,20.62495 8.75,0 0,-7.87503 -8.75,0 0,7.87503 z" /><g
         transform="matrix(7.874016e-5,0,0,-7.874016e-5,199.875,20.62495)"
         id="g3577"><path
           inkscape:connector-curvature="0"
           id="path3579"
           style="fill:none;stroke:#000000;stroke-width:12700;stroke-linecap:butt;stroke-linejoin:miter;stroke-miterlimit:8;stroke-dasharray:none;stroke-opacity:1"
           d="m 0.08135986,0.00323486 111125.01864014,0 0,100012.99676514 -111125.01864014,0 0,-100012.99676514 z" /></g><path
         inkscape:connector-curvature="0"
         id="path3581"
         style="fill:#000000;fill-opacity:1;fill-rule:evenodd;stroke:none"
         d="m 239.375,20.62495 4.3751,0 0,-7.87503 -4.3751,0 0,7.87503 z" /><g
         transform="matrix(7.874016e-5,0,0,-7.874016e-5,239.375,20.62495)"
         id="g3583"><path
           inkscape:connector-curvature="0"
           id="path3585"
           style="fill:none;stroke:#000000;stroke-width:12700;stroke-linecap:butt;stroke-linejoin:miter;stroke-miterlimit:8;stroke-dasharray:none;stroke-opacity:1"
           d="m 0.08135986,0.00323486 55563.07864014,0 0,100012.99676514 -55563.07864014,0 0,-100012.99676514 z" /></g><g
         transform="matrix(7.874016e-5,0,0,-7.874016e-5,178,16.62495)"
         id="g3587"><path
           inkscape:connector-curvature="0"
           id="path3589"
           style="fill:none;stroke:#000000;stroke-width:12700;stroke-linecap:butt;stroke-linejoin:round;stroke-miterlimit:10;stroke-dasharray:none;stroke-opacity:1"
           d="M 0,0.00323486 277813.1,0.9963913" /></g><g
         transform="matrix(7.874016e-5,0,0,-7.874016e-5,208.625,16.62495)"
         id="g3591"><path
           inkscape:connector-curvature="0"
           id="path3593"
           style="fill:none;stroke:#000000;stroke-width:12700;stroke-linecap:butt;stroke-linejoin:round;stroke-miterlimit:10;stroke-dasharray:none;stroke-opacity:1"
           d="M 0.08135986,0.00323486 390525.1,0.9963913" /></g><path
         inkscape:connector-curvature="0"
         id="path3595"
         style="fill:#000000;fill-opacity:1;fill-rule:evenodd;stroke:none"
         d="m 173.625,8.75 4.3751,0 0,-7.8750395 -4.3751,0 0,7.8750395 z" /><g
         transform="matrix(7.874016e-5,0,0,-7.874016e-5,173.625,8.75)"
         id="g3597"><path
           inkscape:connector-curvature="0"
           id="path3599"
           style="fill:none;stroke:#000000;stroke-width:12700;stroke-linecap:butt;stroke-linejoin:miter;stroke-miterlimit:8;stroke-dasharray:none;stroke-opacity:1"
           d="M 0.08135986,0 55563.16,0 l 0,100013 -55563.07864014,0 0,-100013 z" /></g><path
         inkscape:connector-curvature="0"
         id="path3601"
         style="fill:#000000;fill-opacity:1;fill-rule:evenodd;stroke:none"
         d="m 239.375,8.75 4.3751,0 0,-7.8750395 -4.3751,0 0,7.8750395 z" /><g
         transform="matrix(7.874016e-5,0,0,-7.874016e-5,239.375,8.75)"
         id="g3603"><path
           inkscape:connector-curvature="0"
           id="path3605"
           style="fill:none;stroke:#000000;stroke-width:12700;stroke-linecap:butt;stroke-linejoin:miter;stroke-miterlimit:8;stroke-dasharray:none;stroke-opacity:1"
           d="M 0.08135986,0 55563.16,0 l 0,100013 -55563.07864014,0 0,-100013 z" /></g><g
         transform="matrix(7.874016e-5,0,0,-7.874016e-5,178,4.874954)"
         id="g3607"><path
           inkscape:connector-curvature="0"
           id="path3609"
           style="fill:none;stroke:#000000;stroke-width:12700;stroke-linecap:butt;stroke-linejoin:round;stroke-miterlimit:10;stroke-dasharray:none;stroke-opacity:1"
           d="M 0,-6.713867e-4 779463.1,0.9985409" /></g><g
         transform="translate(158.2,163.4)"
         id="g3611"><text
           id="text3613"
           style="font-variant:normal;font-weight:normal;font-size:8px;font-family:Arial;-inkscape-font-specification:ArialMT;writing-mode:lr-tb;fill:#000000;fill-opacity:1;fill-rule:nonzero;stroke:none"
           transform="matrix(1,0,0,-1,0,-8)"><tspan
             id="tspan3615"
             sodipodi:role="line"
             y="0"
             x="0 5.7775998 11.5552 16.891199 19.555201 23.555201 28.004801 32.454399">RNA-seq </tspan></text>
</g><g
         transform="translate(247.2,139.4)"
         id="g3617"><text
           id="text3619"
           style="font-variant:normal;font-weight:normal;font-size:8px;font-family:Arial;-inkscape-font-specification:ArialMT;writing-mode:lr-tb;fill:#000000;fill-opacity:1;fill-rule:nonzero;stroke:none"
           transform="matrix(1,0,0,-1,0,-8)"><tspan
             id="tspan3621"
             sodipodi:role="line"
             y="0"
             x="0 6.664 11.1136 15.5632 20.0128 21.7904 26.24 30.6896">Mapping </tspan></text>
</g><g
         transform="translate(247.2,45.9)"
         id="g3623"><text
           id="text3625"
           style="font-variant:normal;font-weight:normal;font-size:8px;font-family:Arial;-inkscape-font-specification:ArialMT;writing-mode:lr-tb;fill:#000000;fill-opacity:1;fill-rule:nonzero;stroke:none"
           transform="matrix(1,0,0,-1,2.361328,-8)"><tspan
             id="tspan3627"
             sodipodi:role="line"
             y="0"
             x="0 4.5896001 7.2536001 11.7032 16.1528 20.1528 24.1528 26.816799 28.5944 33.043999 35.266399 37.4888 41.9384 45.9384 49.9384 54.388 61.051998 65.501602 67.279198 71.279198">Transcript assembly </tspan></text>
</g><g
         transform="translate(247.2,36.89999)"
         id="g3629"><text
           id="text3631"
           style="font-variant:normal;font-weight:normal;font-size:8px;font-family:Arial;-inkscape-font-specification:ArialMT;writing-mode:lr-tb;fill:#000000;fill-opacity:1;fill-rule:nonzero;stroke:none"
           transform="matrix(1,0,0,-1,14.42773,-8)"><tspan
             id="tspan3633"
             sodipodi:role="line"
             y="0"
             x="0 4.4496002 8.8992004 13.3488 15.5712 19.571199 24.0208 25.798401 30.247999 34.248001 36.470402 38.248001 42.697601 47.147202">and selection </tspan></text>
</g><g
         transform="translate(57.45,90.27496)"
         id="g3635"><text
           id="text3637"
           style="font-variant:normal;font-weight:bold;font-size:8px;font-family:'Courier New';-inkscape-font-specification:CourierNewPS-BoldMT;writing-mode:lr-tb;fill:#000000;fill-opacity:1;fill-rule:nonzero;stroke:none"
           transform="matrix(1,0,0,-1,0,-8)"><tspan
             id="tspan3639"
             sodipodi:role="line"
             y="0"
             x="0 4.8007998 9.6015997 14.4024 19.203199 24.004 28.8048">CTGCCT </tspan></text>
</g><g
         transform="translate(7.2,107.15)"
         id="g3641"><text
           id="text3643"
           style="font-variant:normal;font-weight:bold;font-size:8px;font-family:'Courier New';-inkscape-font-specification:CourierNewPS-BoldMT;writing-mode:lr-tb;fill:#000000;fill-opacity:1;fill-rule:nonzero;stroke:none"
           transform="matrix(1,0,0,-1,0,-8)"><tspan
             id="tspan3645"
             sodipodi:role="line"
             y="0"
             x="0 4.8007998 9.6015997 14.4024 19.203199 24.004">AGCTG </tspan></text>
<text
           id="text3647"
           style="font-variant:normal;font-weight:bold;font-size:8px;font-family:'Courier New';-inkscape-font-specification:CourierNewPS-BoldMT;writing-mode:lr-tb;fill:#000000;fill-opacity:1;fill-rule:nonzero;stroke:none"
           transform="matrix(1,0,0,-1,28.8048,-8)"><tspan
             id="tspan3649"
             y="0"
             x="0">→</tspan></text>
<text
           id="text3651"
           style="font-variant:normal;font-weight:bold;font-size:8px;font-family:'Courier New';-inkscape-font-specification:CourierNewPS-BoldMT;writing-mode:lr-tb;fill:#000000;fill-opacity:1;fill-rule:nonzero;stroke:none"
           transform="matrix(1,0,0,-1,38.4064,-8)"><tspan
             id="tspan3653"
             sodipodi:role="line"
             y="0"
             x="0 4.8007998 9.6015997">CTG</tspan></text>
</g><g
         transform="translate(7.2,107.15)"
         id="g3655"><text
           id="text3657"
           style="font-variant:normal;font-weight:bold;font-size:8px;font-family:'Courier New';-inkscape-font-specification:CourierNewPS-BoldMT;writing-mode:lr-tb;fill:#969696;fill-opacity:1;fill-rule:nonzero;stroke:none"
           transform="matrix(1,0,0,-1,52.80859,-8)"><tspan
             id="tspan3659"
             sodipodi:role="line"
             y="0"
             x="0 4.8007998 9.6015997 14.4024 19.203199">AGTCA</tspan></text>
</g><g
         transform="translate(7.2,107.15)"
         id="g3661"><text
           id="text3663"
           style="font-variant:normal;font-weight:bold;font-size:8px;font-family:'Courier New';-inkscape-font-specification:CourierNewPS-BoldMT;writing-mode:lr-tb;fill:#000000;fill-opacity:1;fill-rule:nonzero;stroke:none"
           transform="matrix(1,0,0,-1,76.8125,-8)"><tspan
             id="tspan3665"
             sodipodi:role="line"
             y="0"
             x="0 4.8007998 9.6015997 14.4024">CCT </tspan></text>
<text
           id="text3667"
           style="font-variant:normal;font-weight:bold;font-size:8px;font-family:'Courier New';-inkscape-font-specification:CourierNewPS-BoldMT;writing-mode:lr-tb;fill:#000000;fill-opacity:1;fill-rule:nonzero;stroke:none"
           transform="matrix(1,0,0,-1,96.0157,-8)"><tspan
             id="tspan3669"
             y="0"
             x="0">→</tspan></text>
</g><g
         transform="translate(7.2,107.15)"
         id="g3671" /><g
         transform="translate(117.575,107.15)"
         id="g3673"><text
           id="text3675"
           style="font-variant:normal;font-weight:bold;font-size:8px;font-family:'Courier New';-inkscape-font-specification:CourierNewPS-BoldMT;writing-mode:lr-tb;fill:#000000;fill-opacity:1;fill-rule:nonzero;stroke:none"
           transform="matrix(1,0,0,-1,0,-8)"><tspan
             id="tspan3677"
             sodipodi:role="line"
             y="0"
             x="0 4.8007998 9.6015997 14.4024 19.203199">CCTT </tspan></text>
</g><g
         transform="matrix(7.874016e-5,0,0,-7.874016e-5,38.25,95)"
         id="g3679"><path
           inkscape:connector-curvature="0"
           id="path3681"
           style="fill:none;stroke:#000000;stroke-width:12700;stroke-linecap:butt;stroke-linejoin:round;stroke-miterlimit:10;stroke-dasharray:none;stroke-opacity:1"
           d="M 0,0 207628.3,138418.9" /></g><path
         inkscape:connector-curvature="0"
         id="path3683"
         style="fill:#000000;fill-opacity:1;fill-rule:evenodd;stroke:none"
         d="m 56.25,83 -8.64496,0.5187 0,0 c -0.55129,0.03307 -0.97139,0.5068 -0.93831,1.05809 l 0,0 c 0.03307,0.5513 0.5068,0.9714 1.05809,0.93832 l 5.22254,-0.31336 -2.29791,4.7003 0,0 c -0.24257,0.49616 -0.03699,1.09502 0.45917,1.33759 0,0 0,0 0,0 l 0,0 c 0.49617,0.24257 1.09503,0.03699 1.3376,-0.45918 L 56.25,83 Z" /><g
         transform="matrix(7.874016e-5,0,0,7.874016e-5,86.25,83)"
         id="g3685"><path
           inkscape:connector-curvature="0"
           id="path3687"
           style="fill:none;stroke:#000000;stroke-width:12700;stroke-linecap:butt;stroke-linejoin:round;stroke-miterlimit:10;stroke-dasharray:none;stroke-opacity:1"
           d="M 0,0 282256.1,141128" /></g><path
         inkscape:connector-curvature="0"
         id="path3689"
         style="fill:#000000;fill-opacity:1;fill-rule:evenodd;stroke:none"
         d="m 110.25,95 -8.6425,0.55758 0,0 c -0.5512,0.03556 -1.0268,-0.3824 -1.0623,-0.93354 l 0,0 c -0.0356,-0.55114 0.3824,-1.02675 0.9335,-1.06231 l 5.2211,-0.33685 -2.8632,-4.37896 0,0 c -0.3022,-0.46225 -0.1725,-1.08199 0.2897,-1.38423 0,0 0,0 0,0 l 0,0 c 0.4623,-0.30223 1.082,-0.17252 1.3842,0.28973 L 110.25,95 Z" /><g
         transform="translate(25.32504,61.4)"
         id="g3691"><text
           id="text3693"
           style="font-variant:normal;font-weight:normal;font-size:8px;font-family:Arial;-inkscape-font-specification:ArialMT;writing-mode:lr-tb;fill:#000000;fill-opacity:1;fill-rule:nonzero;stroke:none"
           transform="matrix(1,0,0,-1,0,-8)"><tspan
             id="tspan3695"
             sodipodi:role="line"
             y="0"
             x="0 4 8.4496002 10.672">v1: </tspan></text>
</g><g
         transform="translate(25.2,49.4)"
         id="g3697"><text
           id="text3699"
           style="font-variant:normal;font-weight:normal;font-size:8px;font-family:Arial;-inkscape-font-specification:ArialMT;writing-mode:lr-tb;fill:#000000;fill-opacity:1;fill-rule:nonzero;stroke:none"
           transform="matrix(1,0,0,-1,0,-8)"><tspan
             id="tspan3701"
             sodipodi:role="line"
             y="0"
             x="0 4 8.4496002 10.672">v2: </tspan></text>
</g><path
         inkscape:connector-curvature="0"
         id="path3703"
         style="fill:#000000;fill-opacity:1;fill-rule:evenodd;stroke:none"
         d="m 43.25,59 24,0 0,-6 -24,0 0,6 z" /><g
         transform="matrix(7.874016e-5,0,0,-7.874016e-5,43.25,59)"
         id="g3705"><path
           inkscape:connector-curvature="0"
           id="path3707"
           style="fill:none;stroke:#000000;stroke-width:12700;stroke-linecap:butt;stroke-linejoin:miter;stroke-miterlimit:8;stroke-dasharray:none;stroke-opacity:1"
           d="m 0,0 304800,0 0,76200 L 0,76200 0,0 Z" /></g><path
         inkscape:connector-curvature="0"
         id="path3709"
         style="fill:#000000;fill-opacity:1;fill-rule:evenodd;stroke:none"
         d="m 85.25,59 24,0 0,-6 -24,0 0,6 z" /><g
         transform="matrix(7.874016e-5,0,0,-7.874016e-5,85.25,59)"
         id="g3711"><path
           inkscape:connector-curvature="0"
           id="path3713"
           style="fill:none;stroke:#000000;stroke-width:12700;stroke-linecap:butt;stroke-linejoin:miter;stroke-miterlimit:8;stroke-dasharray:none;stroke-opacity:1"
           d="m 0,0 304800,0 0,76200 L 0,76200 0,0 Z" /></g><path
         inkscape:connector-curvature="0"
         id="path3715"
         style="fill:#000000;fill-opacity:1;fill-rule:evenodd;stroke:none"
         d="m 73.25,47 24,0 0,-6 -24,0 0,6 z" /><g
         transform="matrix(7.874016e-5,0,0,-7.874016e-5,73.25,47)"
         id="g3717"><path
           inkscape:connector-curvature="0"
           id="path3719"
           style="fill:none;stroke:#000000;stroke-width:12700;stroke-linecap:butt;stroke-linejoin:miter;stroke-miterlimit:8;stroke-dasharray:none;stroke-opacity:1"
           d="m 0,0 304800,0 0,76200 L 0,76200 0,0 Z" /></g><path
         inkscape:connector-curvature="0"
         id="path3721"
         style="fill:#000000;fill-opacity:1;fill-rule:evenodd;stroke:none"
         d="m 49.25,47 24,0 0,-6 -24,0 0,6 z" /><g
         transform="matrix(7.874016e-5,0,0,-7.874016e-5,49.25,47)"
         id="g3723"><path
           inkscape:connector-curvature="0"
           id="path3725"
           style="fill:none;stroke:#000000;stroke-width:12700;stroke-linecap:butt;stroke-linejoin:miter;stroke-miterlimit:8;stroke-dasharray:none;stroke-opacity:1"
           d="m 0,0 304800,0 0,76200 L 0,76200 0,0 Z" /></g><path
         inkscape:connector-curvature="0"
         id="path3727"
         style="fill:#929292;fill-opacity:1;fill-rule:evenodd;stroke:none"
         d="m 67.25,59 18,0 0,-6 -18,0 0,6 z" /><g
         transform="matrix(7.874016e-5,0,0,-7.874016e-5,67.25,59)"
         id="g3729"><path
           inkscape:connector-curvature="0"
           id="path3731"
           style="fill:none;stroke:#000000;stroke-width:12700;stroke-linecap:butt;stroke-linejoin:miter;stroke-miterlimit:8;stroke-dasharray:none;stroke-opacity:1"
           d="m 0,0 228600,0 0,76200 L 0,76200 0,0 Z" /></g><g
         transform="translate(23.32504,133.4)"
         id="g3733"><text
           id="text3735"
           style="font-style:italic;font-variant:normal;font-size:8px;font-family:Arial;-inkscape-font-specification:Arial-ItalicMT;writing-mode:lr-tb;fill:#000000;fill-opacity:1;fill-rule:nonzero;stroke:none"
           transform="matrix(1,0,0,-1,0,-8)"><tspan
             id="tspan3737"
             sodipodi:role="line"
             y="0"
             x="0 5.7775998 10.2272 12.4496 16.8992 21.348801 25.348801">De novo</tspan></text>
</g><g
         transform="translate(23.32504,133.4)"
         id="g3739"><text
           id="text3741"
           style="font-variant:normal;font-weight:normal;font-size:8px;font-family:Arial;-inkscape-font-specification:ArialMT;writing-mode:lr-tb;fill:#000000;fill-opacity:1;fill-rule:nonzero;stroke:none"
           transform="matrix(1,0,0,-1,32.01928,-8)"><tspan
             id="tspan3743"
             sodipodi:role="line"
             y="0"
             x="0 2.2224 4.8864002 9.3360004 13.7856 17.785601 21.785601 24.4496 26.2272 30.6768 32.8992 35.121601 39.571201 43.571201 47.571201 52.020802 58.684799 63.134399 64.912003 68.912003">transcript assembly </tspan></text>
</g><g
         transform="matrix(-7.874016e-5,0,0,-7.874016e-5,102,149)"
         id="g3745"><path
           inkscape:connector-curvature="0"
           id="path3747"
           style="fill:none;stroke:#000000;stroke-width:12700;stroke-linecap:butt;stroke-linejoin:round;stroke-miterlimit:10;stroke-dasharray:none;stroke-opacity:1"
           d="M 0,0 282081.5,141040.8" /></g><path
         inkscape:connector-curvature="0"
         id="path3749"
         style="fill:#000000;fill-opacity:1;fill-rule:evenodd;stroke:none"
         d="M 82.02493,142.3666 78,137 l 6.70821,0 -2.68328,5.3666 z" /><g
         transform="matrix(7.874016e-5,0,0,-7.874016e-5,150,149)"
         id="g3751"><path
           inkscape:connector-curvature="0"
           id="path3753"
           style="fill:none;stroke:#000000;stroke-width:12700;stroke-linecap:butt;stroke-linejoin:round;stroke-miterlimit:10;stroke-dasharray:none;stroke-opacity:1"
           d="M 0,0 584958.3,146239.5" /></g><path
         inkscape:connector-curvature="0"
         id="path3755"
         style="fill:#000000;fill-opacity:1;fill-rule:evenodd;stroke:none"
         d="M 192.9067,141.3656 198,137 l -6.5485,-1.4552 1.4552,5.8208 z" /></g></g></svg>